M48
METRIC,LZ,000.000
;FILE_FORMAT=3:3
;TYPE=PLATED
;Layer: PTH_Through
;EasyEDA v6.5.38, 2023-12-04 19:03:53
;b5bff3c8101f4f8dbc120533c369a027,9f3f2715377c499da2f37e4e16011465,10
;Gerber Generator version 0.2
;Holesize 1 = 0.635 mm
T01C0.635
;Holesize 2 = 0.889 mm
T02C0.889
;Holesize 3 = 1.101 mm
T03C1.101
%
G05
G90
T01
X180780Y121250
X183320Y121250
T02
X040890Y117730
X040890Y120270
X038350Y117730
X038350Y120270
X035810Y117730
X035810Y120270
X033270Y117730
X033270Y120270
X030730Y117730
X030730Y120270
X028190Y117730
X028190Y120270
X025650Y117730
X025650Y120270
X023110Y117730
X023110Y120270
X044000Y098001
X106000Y109000
X068000Y102000
X065000Y099000
X102000Y111000
X059000Y118000
T03
X019749Y098500
X019749Y093999
X026251Y098500
X026251Y093999
X061251Y102749
X061251Y107250
X054749Y102749
X054749Y107250
X061251Y085249
X061251Y089750
X054749Y085249
X054749Y089750
X080164Y098500
X080164Y093999
X086666Y098500
X086666Y093999
X110836Y093999
X110836Y098500
X104334Y093999
X104334Y098500
X092249Y110585
X092249Y106084
X098751Y110585
X098751Y106084
X098751Y081914
X098751Y086415
X092249Y081914
X092249Y086415
X129749Y107250
X129749Y102749
X136251Y107250
X136251Y102749
X136251Y085249
X136251Y089750
X129749Y085249
X129749Y089750
X164748Y106250
X164748Y101749
X171251Y106250
X171251Y101749
X171251Y086499
X171251Y091000
X164748Y086499
X164748Y091000
X098751Y061499
X098751Y066000
X092249Y061499
X092249Y066000
M30
