G04 Layer: BottomSilkscreenLayer*
G04 EasyEDA v6.5.38, 2023-12-04 19:03:53*
G04 b5bff3c8101f4f8dbc120533c369a027,9f3f2715377c499da2f37e4e16011465,10*
G04 Gerber Generator version 0.2*
G04 Scale: 100 percent, Rotated: No, Reflected: No *
G04 Dimensions in millimeters *
G04 leading zeros omitted , absolute positions ,4 integer and 5 decimal *
%FSLAX45Y45*%
%MOMM*%

%ADD10C,0.1524*%
%ADD11C,0.2032*%
%ADD12C,0.2540*%

%LPD*%
D10*
X5699988Y9315320D02*
G01*
X5699988Y9206217D01*
X5699988Y9315320D02*
G01*
X5653229Y9315320D01*
X5637644Y9310126D01*
X5632447Y9304929D01*
X5627253Y9294538D01*
X5627253Y9284147D01*
X5632447Y9273755D01*
X5637644Y9268561D01*
X5653229Y9263367D01*
X5699988Y9263367D01*
X5663620Y9263367D02*
G01*
X5627253Y9206217D01*
X5592963Y9294538D02*
G01*
X5582572Y9299735D01*
X5566984Y9315320D01*
X5566984Y9206217D01*
X5459958Y9315320D02*
G01*
X5511914Y9206217D01*
X5532694Y9315320D02*
G01*
X5459958Y9315320D01*
X2346012Y12226607D02*
G01*
X2236909Y12226607D01*
X2346012Y12226607D02*
G01*
X2346012Y12273366D01*
X2340818Y12288951D01*
X2335621Y12294148D01*
X2325230Y12299342D01*
X2314839Y12299342D01*
X2304448Y12294148D01*
X2299253Y12288951D01*
X2294059Y12273366D01*
X2294059Y12226607D02*
G01*
X2294059Y12273366D01*
X2288862Y12288951D01*
X2283668Y12294148D01*
X2273277Y12299342D01*
X2257689Y12299342D01*
X2247298Y12294148D01*
X2242103Y12288951D01*
X2236909Y12273366D01*
X2236909Y12226607D01*
X2346012Y12370003D02*
G01*
X2236909Y12370003D01*
X2346012Y12333632D02*
G01*
X2346012Y12406370D01*
X2346012Y12440660D02*
G01*
X2236909Y12440660D01*
X2346012Y12440660D02*
G01*
X2236909Y12513396D01*
X2346012Y12513396D02*
G01*
X2236909Y12513396D01*
X2325230Y12547686D02*
G01*
X2330427Y12558077D01*
X2346012Y12573662D01*
X2236909Y12573662D01*
X2593883Y12224575D02*
G01*
X2484780Y12224575D01*
X2593883Y12224575D02*
G01*
X2593883Y12271334D01*
X2588689Y12286919D01*
X2583492Y12292116D01*
X2573101Y12297310D01*
X2562710Y12297310D01*
X2552318Y12292116D01*
X2547124Y12286919D01*
X2541930Y12271334D01*
X2541930Y12224575D02*
G01*
X2541930Y12271334D01*
X2536733Y12286919D01*
X2531539Y12292116D01*
X2521148Y12297310D01*
X2505560Y12297310D01*
X2495168Y12292116D01*
X2489974Y12286919D01*
X2484780Y12271334D01*
X2484780Y12224575D01*
X2593883Y12367971D02*
G01*
X2484780Y12367971D01*
X2593883Y12331600D02*
G01*
X2593883Y12404338D01*
X2593883Y12438628D02*
G01*
X2484780Y12438628D01*
X2593883Y12438628D02*
G01*
X2484780Y12511364D01*
X2593883Y12511364D02*
G01*
X2484780Y12511364D01*
X2593883Y12556045D02*
G01*
X2593883Y12613195D01*
X2552318Y12582022D01*
X2552318Y12597610D01*
X2547124Y12608001D01*
X2541930Y12613195D01*
X2526342Y12618389D01*
X2515951Y12618389D01*
X2500365Y12613195D01*
X2489974Y12602804D01*
X2484780Y12587218D01*
X2484780Y12571630D01*
X2489974Y12556045D01*
X2495168Y12550851D01*
X2505560Y12545654D01*
X2865003Y12217615D02*
G01*
X2755900Y12217615D01*
X2865003Y12217615D02*
G01*
X2865003Y12264374D01*
X2859808Y12279960D01*
X2854612Y12285157D01*
X2844220Y12290351D01*
X2833829Y12290351D01*
X2823438Y12285157D01*
X2818244Y12279960D01*
X2813050Y12264374D01*
X2813050Y12217615D02*
G01*
X2813050Y12264374D01*
X2807853Y12279960D01*
X2802658Y12285157D01*
X2792267Y12290351D01*
X2776679Y12290351D01*
X2766288Y12285157D01*
X2761094Y12279960D01*
X2755900Y12264374D01*
X2755900Y12217615D01*
X2865003Y12361011D02*
G01*
X2755900Y12361011D01*
X2865003Y12324641D02*
G01*
X2865003Y12397379D01*
X2865003Y12431669D02*
G01*
X2755900Y12431669D01*
X2865003Y12431669D02*
G01*
X2755900Y12504404D01*
X2865003Y12504404D02*
G01*
X2755900Y12504404D01*
X2865003Y12601041D02*
G01*
X2865003Y12549085D01*
X2818244Y12543891D01*
X2823438Y12549085D01*
X2828635Y12564671D01*
X2828635Y12580259D01*
X2823438Y12595844D01*
X2813050Y12606235D01*
X2797462Y12611430D01*
X2787070Y12611430D01*
X2771485Y12606235D01*
X2761094Y12595844D01*
X2755900Y12580259D01*
X2755900Y12564671D01*
X2761094Y12549085D01*
X2766288Y12543891D01*
X2776679Y12538694D01*
X3114014Y12204067D02*
G01*
X3004911Y12204067D01*
X3114014Y12204067D02*
G01*
X3114014Y12250826D01*
X3108820Y12266411D01*
X3103623Y12271608D01*
X3093232Y12276802D01*
X3082841Y12276802D01*
X3072450Y12271608D01*
X3067255Y12266411D01*
X3062061Y12250826D01*
X3062061Y12204067D02*
G01*
X3062061Y12250826D01*
X3056864Y12266411D01*
X3051670Y12271608D01*
X3041279Y12276802D01*
X3025691Y12276802D01*
X3015300Y12271608D01*
X3010105Y12266411D01*
X3004911Y12250826D01*
X3004911Y12204067D01*
X3114014Y12347463D02*
G01*
X3004911Y12347463D01*
X3114014Y12311092D02*
G01*
X3114014Y12383830D01*
X3114014Y12418120D02*
G01*
X3004911Y12418120D01*
X3114014Y12418120D02*
G01*
X3004911Y12490856D01*
X3114014Y12490856D02*
G01*
X3004911Y12490856D01*
X3114014Y12597881D02*
G01*
X3004911Y12545928D01*
X3114014Y12525146D02*
G01*
X3114014Y12597881D01*
X3364814Y12204070D02*
G01*
X3255711Y12204070D01*
X3364814Y12204070D02*
G01*
X3364814Y12250828D01*
X3359619Y12266414D01*
X3354423Y12271611D01*
X3344031Y12276805D01*
X3333640Y12276805D01*
X3323249Y12271611D01*
X3318055Y12266414D01*
X3312861Y12250828D01*
X3312861Y12204070D02*
G01*
X3312861Y12250828D01*
X3307664Y12266414D01*
X3302469Y12271611D01*
X3292078Y12276805D01*
X3276490Y12276805D01*
X3266099Y12271611D01*
X3260905Y12266414D01*
X3255711Y12250828D01*
X3255711Y12204070D01*
X3364814Y12347465D02*
G01*
X3255711Y12347465D01*
X3364814Y12311095D02*
G01*
X3364814Y12383833D01*
X3364814Y12418123D02*
G01*
X3255711Y12418123D01*
X3364814Y12418123D02*
G01*
X3255711Y12490858D01*
X3364814Y12490858D02*
G01*
X3255711Y12490858D01*
X3328446Y12592690D02*
G01*
X3312861Y12587495D01*
X3302469Y12577104D01*
X3297273Y12561516D01*
X3297273Y12556322D01*
X3302469Y12540734D01*
X3312861Y12530345D01*
X3328446Y12525148D01*
X3333640Y12525148D01*
X3349228Y12530345D01*
X3359619Y12540734D01*
X3364814Y12556322D01*
X3364814Y12561516D01*
X3359619Y12577104D01*
X3349228Y12587495D01*
X3328446Y12592690D01*
X3302469Y12592690D01*
X3276490Y12587495D01*
X3260905Y12577104D01*
X3255711Y12561516D01*
X3255711Y12551125D01*
X3260905Y12535540D01*
X3271296Y12530345D01*
X3607424Y12209241D02*
G01*
X3498321Y12209241D01*
X3607424Y12209241D02*
G01*
X3607424Y12256000D01*
X3602230Y12271585D01*
X3597033Y12276782D01*
X3586642Y12281976D01*
X3576251Y12281976D01*
X3565860Y12276782D01*
X3560665Y12271585D01*
X3555471Y12256000D01*
X3555471Y12209241D02*
G01*
X3555471Y12256000D01*
X3550274Y12271585D01*
X3545080Y12276782D01*
X3534689Y12281976D01*
X3519101Y12281976D01*
X3508710Y12276782D01*
X3503515Y12271585D01*
X3498321Y12256000D01*
X3498321Y12209241D01*
X3607424Y12352637D02*
G01*
X3498321Y12352637D01*
X3607424Y12316266D02*
G01*
X3607424Y12389004D01*
X3607424Y12423294D02*
G01*
X3498321Y12423294D01*
X3607424Y12423294D02*
G01*
X3498321Y12496030D01*
X3607424Y12496030D02*
G01*
X3498321Y12496030D01*
X3586642Y12530320D02*
G01*
X3591839Y12540711D01*
X3607424Y12556296D01*
X3498321Y12556296D01*
X3586642Y12590586D02*
G01*
X3591839Y12600978D01*
X3607424Y12616566D01*
X3498321Y12616566D01*
X3851267Y12204070D02*
G01*
X3742164Y12204070D01*
X3851267Y12204070D02*
G01*
X3851267Y12250828D01*
X3846073Y12266414D01*
X3840876Y12271611D01*
X3830485Y12276805D01*
X3814899Y12276805D01*
X3804508Y12271611D01*
X3799314Y12266414D01*
X3794117Y12250828D01*
X3794117Y12204070D01*
X3851267Y12311095D02*
G01*
X3742164Y12311095D01*
X3851267Y12383833D02*
G01*
X3742164Y12383833D01*
X3799314Y12311095D02*
G01*
X3799314Y12383833D01*
X3851267Y12449294D02*
G01*
X3846073Y12438905D01*
X3835681Y12428514D01*
X3825290Y12423317D01*
X3809702Y12418123D01*
X3783726Y12418123D01*
X3768140Y12423317D01*
X3757749Y12428514D01*
X3747358Y12438905D01*
X3742164Y12449294D01*
X3742164Y12470076D01*
X3747358Y12480467D01*
X3757749Y12490858D01*
X3768140Y12496055D01*
X3783726Y12501250D01*
X3809702Y12501250D01*
X3825290Y12496055D01*
X3835681Y12490858D01*
X3846073Y12480467D01*
X3851267Y12470076D01*
X3851267Y12449294D01*
X3851267Y12571907D02*
G01*
X3742164Y12571907D01*
X3851267Y12535540D02*
G01*
X3851267Y12608275D01*
X3851267Y12673738D02*
G01*
X3846073Y12663347D01*
X3835681Y12652956D01*
X3825290Y12647762D01*
X3809702Y12642565D01*
X3783726Y12642565D01*
X3768140Y12647762D01*
X3757749Y12652956D01*
X3747358Y12663347D01*
X3742164Y12673738D01*
X3742164Y12694521D01*
X3747358Y12704912D01*
X3757749Y12715303D01*
X3768140Y12720497D01*
X3783726Y12725694D01*
X3809702Y12725694D01*
X3825290Y12720497D01*
X3835681Y12715303D01*
X3846073Y12704912D01*
X3851267Y12694521D01*
X3851267Y12673738D01*
X3851267Y12759984D02*
G01*
X3742164Y12759984D01*
X3851267Y12794274D02*
G01*
X3742164Y12794274D01*
X3851267Y12794274D02*
G01*
X3742164Y12867010D01*
X3851267Y12867010D02*
G01*
X3742164Y12867010D01*
X2345339Y11207925D02*
G01*
X2236236Y11207925D01*
X2345339Y11207925D02*
G01*
X2345339Y11254684D01*
X2340145Y11270269D01*
X2334948Y11275466D01*
X2324557Y11280660D01*
X2314166Y11280660D01*
X2303774Y11275466D01*
X2298580Y11270269D01*
X2293386Y11254684D01*
X2293386Y11207925D02*
G01*
X2293386Y11254684D01*
X2288189Y11270269D01*
X2282995Y11275466D01*
X2272604Y11280660D01*
X2257016Y11280660D01*
X2246624Y11275466D01*
X2241430Y11270269D01*
X2236236Y11254684D01*
X2236236Y11207925D01*
X2345339Y11351320D02*
G01*
X2236236Y11351320D01*
X2345339Y11314950D02*
G01*
X2345339Y11387688D01*
X2345339Y11421978D02*
G01*
X2236236Y11421978D01*
X2345339Y11421978D02*
G01*
X2236236Y11494714D01*
X2345339Y11494714D02*
G01*
X2236236Y11494714D01*
X2319362Y11534200D02*
G01*
X2324557Y11534200D01*
X2334948Y11539395D01*
X2340145Y11544589D01*
X2345339Y11554980D01*
X2345339Y11575762D01*
X2340145Y11586154D01*
X2334948Y11591350D01*
X2324557Y11596545D01*
X2314166Y11596545D01*
X2303774Y11591350D01*
X2288189Y11580959D01*
X2236236Y11529004D01*
X2236236Y11601739D01*
X2624274Y11182433D02*
G01*
X2515171Y11182433D01*
X2624274Y11182433D02*
G01*
X2624274Y11229192D01*
X2619080Y11244778D01*
X2613883Y11249974D01*
X2603492Y11255169D01*
X2593101Y11255169D01*
X2582710Y11249974D01*
X2577515Y11244778D01*
X2572321Y11229192D01*
X2572321Y11182433D02*
G01*
X2572321Y11229192D01*
X2567124Y11244778D01*
X2561930Y11249974D01*
X2551539Y11255169D01*
X2535951Y11255169D01*
X2525560Y11249974D01*
X2520365Y11244778D01*
X2515171Y11229192D01*
X2515171Y11182433D01*
X2624274Y11325829D02*
G01*
X2515171Y11325829D01*
X2624274Y11289459D02*
G01*
X2624274Y11362197D01*
X2624274Y11396487D02*
G01*
X2515171Y11396487D01*
X2624274Y11396487D02*
G01*
X2515171Y11469222D01*
X2624274Y11469222D02*
G01*
X2515171Y11469222D01*
X2624274Y11555468D02*
G01*
X2551539Y11503512D01*
X2551539Y11581444D01*
X2624274Y11555468D02*
G01*
X2515171Y11555468D01*
X2862747Y11173495D02*
G01*
X2753644Y11173495D01*
X2862747Y11173495D02*
G01*
X2862747Y11220254D01*
X2857553Y11235839D01*
X2852356Y11241036D01*
X2841965Y11246230D01*
X2831574Y11246230D01*
X2821183Y11241036D01*
X2815988Y11235839D01*
X2810794Y11220254D01*
X2810794Y11173495D02*
G01*
X2810794Y11220254D01*
X2805597Y11235839D01*
X2800403Y11241036D01*
X2790012Y11246230D01*
X2774424Y11246230D01*
X2764033Y11241036D01*
X2758838Y11235839D01*
X2753644Y11220254D01*
X2753644Y11173495D01*
X2862747Y11316891D02*
G01*
X2753644Y11316891D01*
X2862747Y11280520D02*
G01*
X2862747Y11353258D01*
X2862747Y11387548D02*
G01*
X2753644Y11387548D01*
X2862747Y11387548D02*
G01*
X2753644Y11460284D01*
X2862747Y11460284D02*
G01*
X2753644Y11460284D01*
X2847162Y11556921D02*
G01*
X2857553Y11551724D01*
X2862747Y11536138D01*
X2862747Y11525747D01*
X2857553Y11510159D01*
X2841965Y11499771D01*
X2815988Y11494574D01*
X2790012Y11494574D01*
X2769229Y11499771D01*
X2758838Y11510159D01*
X2753644Y11525747D01*
X2753644Y11530942D01*
X2758838Y11546530D01*
X2769229Y11556921D01*
X2784815Y11562115D01*
X2790012Y11562115D01*
X2805597Y11556921D01*
X2815988Y11546530D01*
X2821183Y11530942D01*
X2821183Y11525747D01*
X2815988Y11510159D01*
X2805597Y11499771D01*
X2790012Y11494574D01*
X3118718Y11158915D02*
G01*
X3009615Y11158915D01*
X3118718Y11158915D02*
G01*
X3118718Y11205674D01*
X3113524Y11221260D01*
X3108327Y11226457D01*
X3097936Y11231651D01*
X3087545Y11231651D01*
X3077154Y11226457D01*
X3071959Y11221260D01*
X3066765Y11205674D01*
X3066765Y11158915D02*
G01*
X3066765Y11205674D01*
X3061568Y11221260D01*
X3056374Y11226457D01*
X3045983Y11231651D01*
X3030395Y11231651D01*
X3020004Y11226457D01*
X3014809Y11221260D01*
X3009615Y11205674D01*
X3009615Y11158915D01*
X3118718Y11302311D02*
G01*
X3009615Y11302311D01*
X3118718Y11265941D02*
G01*
X3118718Y11338679D01*
X3118718Y11372969D02*
G01*
X3009615Y11372969D01*
X3118718Y11372969D02*
G01*
X3009615Y11445704D01*
X3118718Y11445704D02*
G01*
X3009615Y11445704D01*
X3118718Y11505971D02*
G01*
X3113524Y11490385D01*
X3103133Y11485191D01*
X3092742Y11485191D01*
X3082350Y11490385D01*
X3077154Y11500777D01*
X3071959Y11521559D01*
X3066765Y11537144D01*
X3056374Y11547535D01*
X3045983Y11552730D01*
X3030395Y11552730D01*
X3020004Y11547535D01*
X3014809Y11542341D01*
X3009615Y11526753D01*
X3009615Y11505971D01*
X3014809Y11490385D01*
X3020004Y11485191D01*
X3030395Y11479994D01*
X3045983Y11479994D01*
X3056374Y11485191D01*
X3066765Y11495580D01*
X3071959Y11511168D01*
X3077154Y11531950D01*
X3082350Y11542341D01*
X3092742Y11547535D01*
X3103133Y11547535D01*
X3113524Y11542341D01*
X3118718Y11526753D01*
X3118718Y11505971D01*
X3362180Y11159949D02*
G01*
X3253077Y11159949D01*
X3362180Y11159949D02*
G01*
X3362180Y11206708D01*
X3356985Y11222294D01*
X3351789Y11227490D01*
X3341397Y11232685D01*
X3331006Y11232685D01*
X3320615Y11227490D01*
X3315421Y11222294D01*
X3310227Y11206708D01*
X3310227Y11159949D02*
G01*
X3310227Y11206708D01*
X3305030Y11222294D01*
X3299835Y11227490D01*
X3289444Y11232685D01*
X3273856Y11232685D01*
X3263465Y11227490D01*
X3258271Y11222294D01*
X3253077Y11206708D01*
X3253077Y11159949D01*
X3362180Y11303345D02*
G01*
X3253077Y11303345D01*
X3362180Y11266975D02*
G01*
X3362180Y11339713D01*
X3362180Y11374003D02*
G01*
X3253077Y11374003D01*
X3362180Y11374003D02*
G01*
X3253077Y11446738D01*
X3362180Y11446738D02*
G01*
X3253077Y11446738D01*
X3341397Y11481028D02*
G01*
X3346594Y11491419D01*
X3362180Y11507005D01*
X3253077Y11507005D01*
X3362180Y11572468D02*
G01*
X3356985Y11556883D01*
X3341397Y11546492D01*
X3315421Y11541295D01*
X3299835Y11541295D01*
X3273856Y11546492D01*
X3258271Y11556883D01*
X3253077Y11572468D01*
X3253077Y11582859D01*
X3258271Y11598445D01*
X3273856Y11608836D01*
X3299835Y11614033D01*
X3315421Y11614033D01*
X3341397Y11608836D01*
X3356985Y11598445D01*
X3362180Y11582859D01*
X3362180Y11572468D01*
X3615331Y11149977D02*
G01*
X3506228Y11149977D01*
X3615331Y11149977D02*
G01*
X3615331Y11196736D01*
X3610137Y11212321D01*
X3604940Y11217518D01*
X3594549Y11222713D01*
X3584158Y11222713D01*
X3573767Y11217518D01*
X3568572Y11212321D01*
X3563378Y11196736D01*
X3563378Y11149977D02*
G01*
X3563378Y11196736D01*
X3558181Y11212321D01*
X3552987Y11217518D01*
X3542596Y11222713D01*
X3527008Y11222713D01*
X3516617Y11217518D01*
X3511422Y11212321D01*
X3506228Y11196736D01*
X3506228Y11149977D01*
X3615331Y11293373D02*
G01*
X3506228Y11293373D01*
X3615331Y11257003D02*
G01*
X3615331Y11329741D01*
X3615331Y11364031D02*
G01*
X3506228Y11364031D01*
X3615331Y11364031D02*
G01*
X3506228Y11436766D01*
X3615331Y11436766D02*
G01*
X3506228Y11436766D01*
X3594549Y11471056D02*
G01*
X3599746Y11481447D01*
X3615331Y11497033D01*
X3506228Y11497033D01*
X3589355Y11536519D02*
G01*
X3594549Y11536519D01*
X3604940Y11541714D01*
X3610137Y11546911D01*
X3615331Y11557302D01*
X3615331Y11578081D01*
X3610137Y11588473D01*
X3604940Y11593669D01*
X3594549Y11598864D01*
X3584158Y11598864D01*
X3573767Y11593669D01*
X3558181Y11583278D01*
X3506228Y11531323D01*
X3506228Y11604061D01*
X3869519Y11290617D02*
G01*
X3760416Y11332182D01*
X3869519Y11373744D02*
G01*
X3760416Y11332182D01*
X3843543Y11485966D02*
G01*
X3853934Y11480772D01*
X3864325Y11470380D01*
X3869519Y11459989D01*
X3869519Y11439207D01*
X3864325Y11428816D01*
X3853934Y11418425D01*
X3843543Y11413230D01*
X3827955Y11408034D01*
X3801978Y11408034D01*
X3786393Y11413230D01*
X3776002Y11418425D01*
X3765610Y11428816D01*
X3760416Y11439207D01*
X3760416Y11459989D01*
X3765610Y11470380D01*
X3776002Y11480772D01*
X3786393Y11485966D01*
X3843543Y11598188D02*
G01*
X3853934Y11592991D01*
X3864325Y11582603D01*
X3869519Y11572212D01*
X3869519Y11551429D01*
X3864325Y11541038D01*
X3853934Y11530647D01*
X3843543Y11525453D01*
X3827955Y11520256D01*
X3801978Y11520256D01*
X3786393Y11525453D01*
X3776002Y11530647D01*
X3765610Y11541038D01*
X3760416Y11551429D01*
X3760416Y11572212D01*
X3765610Y11582603D01*
X3776002Y11592991D01*
X3786393Y11598188D01*
X4114749Y11372027D02*
G01*
X4125140Y11366830D01*
X4135531Y11356439D01*
X4140725Y11346050D01*
X4140725Y11325268D01*
X4135531Y11314877D01*
X4125140Y11304485D01*
X4114749Y11299289D01*
X4099161Y11294094D01*
X4073184Y11294094D01*
X4057599Y11299289D01*
X4047208Y11304485D01*
X4036816Y11314877D01*
X4031622Y11325268D01*
X4031622Y11346050D01*
X4036816Y11356439D01*
X4047208Y11366830D01*
X4057599Y11372027D01*
X4073184Y11372027D01*
X4073184Y11346050D02*
G01*
X4073184Y11372027D01*
X4140725Y11406317D02*
G01*
X4031622Y11406317D01*
X4140725Y11406317D02*
G01*
X4031622Y11479052D01*
X4140725Y11479052D02*
G01*
X4031622Y11479052D01*
X4140725Y11513342D02*
G01*
X4031622Y11513342D01*
X4140725Y11513342D02*
G01*
X4140725Y11549710D01*
X4135531Y11565298D01*
X4125140Y11575689D01*
X4114749Y11580883D01*
X4099161Y11586080D01*
X4073184Y11586080D01*
X4057599Y11580883D01*
X4047208Y11575689D01*
X4036816Y11565298D01*
X4031622Y11549710D01*
X4031622Y11513342D01*
X3622014Y9989388D02*
G01*
X3627348Y9999802D01*
X3637762Y10010216D01*
X3647922Y10015296D01*
X3668750Y10015296D01*
X3679164Y10010216D01*
X3689578Y9999802D01*
X3694912Y9989388D01*
X3699992Y9973640D01*
X3699992Y9947732D01*
X3694912Y9932238D01*
X3689578Y9921824D01*
X3679164Y9911410D01*
X3668750Y9906330D01*
X3647922Y9906330D01*
X3637762Y9911410D01*
X3627348Y9921824D01*
X3622014Y9932238D01*
X3587724Y9994468D02*
G01*
X3577310Y9999802D01*
X3561816Y10015296D01*
X3561816Y9906330D01*
X5522010Y10116388D02*
G01*
X5527344Y10126802D01*
X5537758Y10137216D01*
X5547918Y10142296D01*
X5568746Y10142296D01*
X5579160Y10137216D01*
X5589574Y10126802D01*
X5594908Y10116388D01*
X5599988Y10100640D01*
X5599988Y10074732D01*
X5594908Y10059238D01*
X5589574Y10048824D01*
X5579160Y10038410D01*
X5568746Y10033330D01*
X5547918Y10033330D01*
X5537758Y10038410D01*
X5527344Y10048824D01*
X5522010Y10059238D01*
X5482640Y10116388D02*
G01*
X5482640Y10121468D01*
X5477306Y10131882D01*
X5472226Y10137216D01*
X5461812Y10142296D01*
X5440984Y10142296D01*
X5430570Y10137216D01*
X5425490Y10131882D01*
X5420156Y10121468D01*
X5420156Y10111054D01*
X5425490Y10100640D01*
X5435904Y10085146D01*
X5487720Y10033330D01*
X5415076Y10033330D01*
X5577966Y7310577D02*
G01*
X5572633Y7300163D01*
X5562218Y7289749D01*
X5552059Y7284669D01*
X5531231Y7284669D01*
X5520816Y7289749D01*
X5510402Y7300163D01*
X5505068Y7310577D01*
X5499988Y7326325D01*
X5499988Y7352233D01*
X5505068Y7367727D01*
X5510402Y7378141D01*
X5520816Y7388555D01*
X5531231Y7393635D01*
X5552059Y7393635D01*
X5562218Y7388555D01*
X5572633Y7378141D01*
X5577966Y7367727D01*
X5622670Y7284669D02*
G01*
X5679820Y7284669D01*
X5648579Y7326325D01*
X5664072Y7326325D01*
X5674486Y7331405D01*
X5679820Y7336485D01*
X5684900Y7352233D01*
X5684900Y7362647D01*
X5679820Y7378141D01*
X5669406Y7388555D01*
X5653659Y7393635D01*
X5638165Y7393635D01*
X5622670Y7388555D01*
X5617336Y7383475D01*
X5612256Y7373061D01*
X7808645Y10718266D02*
G01*
X7813979Y10728680D01*
X7824393Y10739094D01*
X7834553Y10744174D01*
X7855381Y10744174D01*
X7865795Y10739094D01*
X7876209Y10728680D01*
X7881543Y10718266D01*
X7886623Y10702518D01*
X7886623Y10676610D01*
X7881543Y10661116D01*
X7876209Y10650702D01*
X7865795Y10640288D01*
X7855381Y10635208D01*
X7834553Y10635208D01*
X7824393Y10640288D01*
X7813979Y10650702D01*
X7808645Y10661116D01*
X7722539Y10744174D02*
G01*
X7774355Y10671530D01*
X7696377Y10671530D01*
X7722539Y10744174D02*
G01*
X7722539Y10635208D01*
X10983569Y8522004D02*
G01*
X10973155Y8527338D01*
X10962741Y8537752D01*
X10957661Y8547912D01*
X10957661Y8568740D01*
X10962741Y8579154D01*
X10973155Y8589568D01*
X10983569Y8594902D01*
X10999317Y8599982D01*
X11025225Y8599982D01*
X11040719Y8594902D01*
X11051133Y8589568D01*
X11061547Y8579154D01*
X11066627Y8568740D01*
X11066627Y8547912D01*
X11061547Y8537752D01*
X11051133Y8527338D01*
X11040719Y8522004D01*
X10957661Y8425484D02*
G01*
X10957661Y8477300D01*
X11004397Y8482634D01*
X10999317Y8477300D01*
X10993983Y8461806D01*
X10993983Y8446312D01*
X10999317Y8430564D01*
X11009477Y8420150D01*
X11025225Y8415070D01*
X11035639Y8415070D01*
X11051133Y8420150D01*
X11061547Y8430564D01*
X11066627Y8446312D01*
X11066627Y8461806D01*
X11061547Y8477300D01*
X11056467Y8482634D01*
X11046053Y8487714D01*
X8422004Y11316385D02*
G01*
X8427338Y11326799D01*
X8437752Y11337213D01*
X8447913Y11342293D01*
X8468740Y11342293D01*
X8479154Y11337213D01*
X8489568Y11326799D01*
X8494902Y11316385D01*
X8499983Y11300637D01*
X8499983Y11274729D01*
X8494902Y11259235D01*
X8489568Y11248821D01*
X8479154Y11238407D01*
X8468740Y11233327D01*
X8447913Y11233327D01*
X8437752Y11238407D01*
X8427338Y11248821D01*
X8422004Y11259235D01*
X8325484Y11326799D02*
G01*
X8330565Y11337213D01*
X8346313Y11342293D01*
X8356472Y11342293D01*
X8372220Y11337213D01*
X8382634Y11321465D01*
X8387715Y11295557D01*
X8387715Y11269649D01*
X8382634Y11248821D01*
X8372220Y11238407D01*
X8356472Y11233327D01*
X8351393Y11233327D01*
X8335899Y11238407D01*
X8325484Y11248821D01*
X8320150Y11264315D01*
X8320150Y11269649D01*
X8325484Y11285143D01*
X8335899Y11295557D01*
X8351393Y11300637D01*
X8356472Y11300637D01*
X8372220Y11295557D01*
X8382634Y11285143D01*
X8387715Y11269649D01*
X9222003Y7516393D02*
G01*
X9227337Y7526807D01*
X9237751Y7537221D01*
X9247911Y7542301D01*
X9268739Y7542301D01*
X9279153Y7537221D01*
X9289567Y7526807D01*
X9294901Y7516393D01*
X9299981Y7500645D01*
X9299981Y7474737D01*
X9294901Y7459243D01*
X9289567Y7448829D01*
X9279153Y7438415D01*
X9268739Y7433335D01*
X9247911Y7433335D01*
X9237751Y7438415D01*
X9227337Y7448829D01*
X9222003Y7459243D01*
X9161805Y7542301D02*
G01*
X9177299Y7537221D01*
X9182633Y7526807D01*
X9182633Y7516393D01*
X9177299Y7505979D01*
X9166885Y7500645D01*
X9146311Y7495565D01*
X9130563Y7490485D01*
X9120149Y7480071D01*
X9115069Y7469657D01*
X9115069Y7453909D01*
X9120149Y7443495D01*
X9125483Y7438415D01*
X9140977Y7433335D01*
X9161805Y7433335D01*
X9177299Y7438415D01*
X9182633Y7443495D01*
X9187713Y7453909D01*
X9187713Y7469657D01*
X9182633Y7480071D01*
X9172219Y7490485D01*
X9156471Y7495565D01*
X9135897Y7500645D01*
X9125483Y7505979D01*
X9120149Y7516393D01*
X9120149Y7526807D01*
X9125483Y7537221D01*
X9140977Y7542301D01*
X9161805Y7542301D01*
X12121997Y11116386D02*
G01*
X12127331Y11126800D01*
X12137745Y11137214D01*
X12147905Y11142294D01*
X12168733Y11142294D01*
X12179147Y11137214D01*
X12189561Y11126800D01*
X12194895Y11116386D01*
X12199975Y11100638D01*
X12199975Y11074730D01*
X12194895Y11059236D01*
X12189561Y11048822D01*
X12179147Y11038408D01*
X12168733Y11033328D01*
X12147905Y11033328D01*
X12137745Y11038408D01*
X12127331Y11048822D01*
X12121997Y11059236D01*
X12020143Y11105972D02*
G01*
X12025477Y11090478D01*
X12035891Y11080064D01*
X12051385Y11074730D01*
X12056465Y11074730D01*
X12072213Y11080064D01*
X12082627Y11090478D01*
X12087707Y11105972D01*
X12087707Y11111052D01*
X12082627Y11126800D01*
X12072213Y11137214D01*
X12056465Y11142294D01*
X12051385Y11142294D01*
X12035891Y11137214D01*
X12025477Y11126800D01*
X12020143Y11105972D01*
X12020143Y11080064D01*
X12025477Y11053902D01*
X12035891Y11038408D01*
X12051385Y11033328D01*
X12061799Y11033328D01*
X12077293Y11038408D01*
X12082627Y11048822D01*
X13021995Y7816392D02*
G01*
X13027329Y7826806D01*
X13037743Y7837220D01*
X13047903Y7842300D01*
X13068731Y7842300D01*
X13079145Y7837220D01*
X13089559Y7826806D01*
X13094893Y7816392D01*
X13099973Y7800644D01*
X13099973Y7774736D01*
X13094893Y7759242D01*
X13089559Y7748828D01*
X13079145Y7738414D01*
X13068731Y7733334D01*
X13047903Y7733334D01*
X13037743Y7738414D01*
X13027329Y7748828D01*
X13021995Y7759242D01*
X12987705Y7821472D02*
G01*
X12977291Y7826806D01*
X12961797Y7842300D01*
X12961797Y7733334D01*
X12896265Y7842300D02*
G01*
X12912013Y7837220D01*
X12922173Y7821472D01*
X12927507Y7795564D01*
X12927507Y7780070D01*
X12922173Y7753908D01*
X12912013Y7738414D01*
X12896265Y7733334D01*
X12885851Y7733334D01*
X12870357Y7738414D01*
X12859943Y7753908D01*
X12854863Y7780070D01*
X12854863Y7795564D01*
X12859943Y7821472D01*
X12870357Y7837220D01*
X12885851Y7842300D01*
X12896265Y7842300D01*
X16521988Y11616385D02*
G01*
X16527322Y11626799D01*
X16537736Y11637213D01*
X16547896Y11642293D01*
X16568724Y11642293D01*
X16579138Y11637213D01*
X16589552Y11626799D01*
X16594886Y11616385D01*
X16599966Y11600637D01*
X16599966Y11574729D01*
X16594886Y11559235D01*
X16589552Y11548821D01*
X16579138Y11538407D01*
X16568724Y11533327D01*
X16547896Y11533327D01*
X16537736Y11538407D01*
X16527322Y11548821D01*
X16521988Y11559235D01*
X16487698Y11621465D02*
G01*
X16477284Y11626799D01*
X16461790Y11642293D01*
X16461790Y11533327D01*
X16427500Y11621465D02*
G01*
X16417086Y11626799D01*
X16401592Y11642293D01*
X16401592Y11533327D01*
X16521988Y7916392D02*
G01*
X16527322Y7926806D01*
X16537736Y7937220D01*
X16547896Y7942300D01*
X16568724Y7942300D01*
X16579138Y7937220D01*
X16589552Y7926806D01*
X16594886Y7916392D01*
X16599966Y7900644D01*
X16599966Y7874736D01*
X16594886Y7859242D01*
X16589552Y7848828D01*
X16579138Y7838414D01*
X16568724Y7833334D01*
X16547896Y7833334D01*
X16537736Y7838414D01*
X16527322Y7848828D01*
X16521988Y7859242D01*
X16487698Y7921472D02*
G01*
X16477284Y7926806D01*
X16461790Y7942300D01*
X16461790Y7833334D01*
X16422166Y7916392D02*
G01*
X16422166Y7921472D01*
X16417086Y7931886D01*
X16412006Y7937220D01*
X16401592Y7942300D01*
X16380764Y7942300D01*
X16370350Y7937220D01*
X16365016Y7931886D01*
X16359936Y7921472D01*
X16359936Y7911058D01*
X16365016Y7900644D01*
X16375430Y7885150D01*
X16427500Y7833334D01*
X16354856Y7833334D01*
X8322005Y6816394D02*
G01*
X8327339Y6826808D01*
X8337753Y6837222D01*
X8347913Y6842302D01*
X8368741Y6842302D01*
X8379155Y6837222D01*
X8389569Y6826808D01*
X8394903Y6816394D01*
X8399983Y6800646D01*
X8399983Y6774738D01*
X8394903Y6759244D01*
X8389569Y6748830D01*
X8379155Y6738416D01*
X8368741Y6733336D01*
X8347913Y6733336D01*
X8337753Y6738416D01*
X8327339Y6748830D01*
X8322005Y6759244D01*
X8287715Y6821474D02*
G01*
X8277301Y6826808D01*
X8261807Y6842302D01*
X8261807Y6733336D01*
X8217103Y6842302D02*
G01*
X8159953Y6842302D01*
X8191195Y6800646D01*
X8175447Y6800646D01*
X8165033Y6795566D01*
X8159953Y6790486D01*
X8154873Y6774738D01*
X8154873Y6764324D01*
X8159953Y6748830D01*
X8170367Y6738416D01*
X8185861Y6733336D01*
X8201609Y6733336D01*
X8217103Y6738416D01*
X8222183Y6743496D01*
X8227517Y6753910D01*
X5799988Y11915315D02*
G01*
X5799988Y11806212D01*
X5799988Y11915315D02*
G01*
X5753229Y11915315D01*
X5737644Y11910120D01*
X5732447Y11904924D01*
X5727252Y11894532D01*
X5727252Y11884141D01*
X5732447Y11873750D01*
X5737644Y11868556D01*
X5753229Y11863362D01*
X5799988Y11863362D02*
G01*
X5753229Y11863362D01*
X5737644Y11858165D01*
X5732447Y11852970D01*
X5727252Y11842579D01*
X5727252Y11826991D01*
X5732447Y11816600D01*
X5737644Y11811406D01*
X5753229Y11806212D01*
X5799988Y11806212D01*
X5692962Y11915315D02*
G01*
X5692962Y11806212D01*
X5692962Y11915315D02*
G01*
X5646204Y11915315D01*
X5630616Y11910120D01*
X5625421Y11904924D01*
X5620224Y11894532D01*
X5620224Y11884141D01*
X5625421Y11873750D01*
X5630616Y11868556D01*
X5646204Y11863362D01*
X5692962Y11863362D01*
X5656592Y11863362D02*
G01*
X5620224Y11806212D01*
X5544372Y11915315D02*
G01*
X5585934Y11806212D01*
X5544372Y11915315D02*
G01*
X5502808Y11806212D01*
X5570349Y11842579D02*
G01*
X5518393Y11842579D01*
X5468518Y11915315D02*
G01*
X5468518Y11806212D01*
X5434228Y11915315D02*
G01*
X5434228Y11806212D01*
X5434228Y11915315D02*
G01*
X5361492Y11806212D01*
X5361492Y11915315D02*
G01*
X5361492Y11806212D01*
X5327202Y11769841D02*
G01*
X5233682Y11769841D01*
X5199392Y11915315D02*
G01*
X5199392Y11806212D01*
X5199392Y11915315D02*
G01*
X5152633Y11915315D01*
X5137048Y11910120D01*
X5131854Y11904924D01*
X5126657Y11894532D01*
X5126657Y11878947D01*
X5131854Y11868556D01*
X5137048Y11863362D01*
X5152633Y11858165D01*
X5199392Y11858165D01*
X5014434Y11889338D02*
G01*
X5019631Y11899729D01*
X5030022Y11910120D01*
X5040414Y11915315D01*
X5061193Y11915315D01*
X5071584Y11910120D01*
X5081976Y11899729D01*
X5087172Y11889338D01*
X5092367Y11873750D01*
X5092367Y11847774D01*
X5087172Y11832188D01*
X5081976Y11821797D01*
X5071584Y11811406D01*
X5061193Y11806212D01*
X5040414Y11806212D01*
X5030022Y11811406D01*
X5019631Y11821797D01*
X5014434Y11832188D01*
X4980144Y11915315D02*
G01*
X4980144Y11806212D01*
X4980144Y11915315D02*
G01*
X4933386Y11915315D01*
X4917800Y11910120D01*
X4912603Y11904924D01*
X4907409Y11894532D01*
X4907409Y11884141D01*
X4912603Y11873750D01*
X4917800Y11868556D01*
X4933386Y11863362D01*
X4980144Y11863362D02*
G01*
X4933386Y11863362D01*
X4917800Y11858165D01*
X4912603Y11852970D01*
X4907409Y11842579D01*
X4907409Y11826991D01*
X4912603Y11816600D01*
X4917800Y11811406D01*
X4933386Y11806212D01*
X4980144Y11806212D01*
X4873119Y11769841D02*
G01*
X4779601Y11769841D01*
X4667379Y11889338D02*
G01*
X4672573Y11899729D01*
X4682964Y11910120D01*
X4693356Y11915315D01*
X4714138Y11915315D01*
X4724529Y11910120D01*
X4734920Y11899729D01*
X4740114Y11889338D01*
X4745311Y11873750D01*
X4745311Y11847774D01*
X4740114Y11832188D01*
X4734920Y11821797D01*
X4724529Y11811406D01*
X4714138Y11806212D01*
X4693356Y11806212D01*
X4682964Y11811406D01*
X4672573Y11821797D01*
X4667379Y11832188D01*
X4601916Y11915315D02*
G01*
X4612307Y11910120D01*
X4622698Y11899729D01*
X4627892Y11889338D01*
X4633089Y11873750D01*
X4633089Y11847774D01*
X4627892Y11832188D01*
X4622698Y11821797D01*
X4612307Y11811406D01*
X4601916Y11806212D01*
X4581133Y11806212D01*
X4570742Y11811406D01*
X4560354Y11821797D01*
X4555157Y11832188D01*
X4549962Y11847774D01*
X4549962Y11873750D01*
X4555157Y11889338D01*
X4560354Y11899729D01*
X4570742Y11910120D01*
X4581133Y11915315D01*
X4601916Y11915315D01*
X4515672Y11915315D02*
G01*
X4515672Y11806212D01*
X4515672Y11915315D02*
G01*
X4442934Y11806212D01*
X4442934Y11915315D02*
G01*
X4442934Y11806212D01*
X4408644Y11915315D02*
G01*
X4408644Y11806212D01*
X4408644Y11915315D02*
G01*
X4335909Y11806212D01*
X4335909Y11915315D02*
G01*
X4335909Y11806212D01*
X3599992Y9615296D02*
G01*
X3599992Y9506330D01*
X3599992Y9615296D02*
G01*
X3553256Y9615296D01*
X3537762Y9610217D01*
X3532428Y9604883D01*
X3527348Y9594469D01*
X3527348Y9584054D01*
X3532428Y9573640D01*
X3537762Y9568561D01*
X3553256Y9563480D01*
X3599992Y9563480D01*
X3563670Y9563480D02*
G01*
X3527348Y9506330D01*
X3493058Y9594469D02*
G01*
X3482644Y9599803D01*
X3466896Y9615296D01*
X3466896Y9506330D01*
X6099987Y9942296D02*
G01*
X6099987Y9833330D01*
X6099987Y9942296D02*
G01*
X6053251Y9942296D01*
X6037757Y9937216D01*
X6032423Y9931882D01*
X6027343Y9921468D01*
X6027343Y9911054D01*
X6032423Y9900640D01*
X6037757Y9895560D01*
X6053251Y9890480D01*
X6099987Y9890480D01*
X6063665Y9890480D02*
G01*
X6027343Y9833330D01*
X5987719Y9916388D02*
G01*
X5987719Y9921468D01*
X5982639Y9931882D01*
X5977305Y9937216D01*
X5966891Y9942296D01*
X5946317Y9942296D01*
X5935903Y9937216D01*
X5930569Y9931882D01*
X5925489Y9921468D01*
X5925489Y9911054D01*
X5930569Y9900640D01*
X5940983Y9885146D01*
X5993053Y9833330D01*
X5920155Y9833330D01*
X6299987Y7815300D02*
G01*
X6299987Y7706334D01*
X6299987Y7815300D02*
G01*
X6253251Y7815300D01*
X6237757Y7810220D01*
X6232423Y7804886D01*
X6227343Y7794472D01*
X6227343Y7784058D01*
X6232423Y7773644D01*
X6237757Y7768564D01*
X6253251Y7763484D01*
X6299987Y7763484D01*
X6263665Y7763484D02*
G01*
X6227343Y7706334D01*
X6182639Y7815300D02*
G01*
X6125489Y7815300D01*
X6156477Y7773644D01*
X6140983Y7773644D01*
X6130569Y7768564D01*
X6125489Y7763484D01*
X6120155Y7747736D01*
X6120155Y7737322D01*
X6125489Y7721828D01*
X6135903Y7711414D01*
X6151397Y7706334D01*
X6166891Y7706334D01*
X6182639Y7711414D01*
X6187719Y7716494D01*
X6193053Y7726908D01*
X8552756Y10320467D02*
G01*
X8552756Y10211501D01*
X8552756Y10320467D02*
G01*
X8506020Y10320467D01*
X8490526Y10315387D01*
X8485192Y10310053D01*
X8480112Y10299639D01*
X8480112Y10289225D01*
X8485192Y10278811D01*
X8490526Y10273731D01*
X8506020Y10268651D01*
X8552756Y10268651D01*
X8516434Y10268651D02*
G01*
X8480112Y10211501D01*
X8393752Y10320467D02*
G01*
X8445822Y10247823D01*
X8367844Y10247823D01*
X8393752Y10320467D02*
G01*
X8393752Y10211501D01*
X10699978Y9142298D02*
G01*
X10699978Y9033332D01*
X10699978Y9142298D02*
G01*
X10653242Y9142298D01*
X10637748Y9137218D01*
X10632414Y9131884D01*
X10627334Y9121470D01*
X10627334Y9111056D01*
X10632414Y9100642D01*
X10637748Y9095562D01*
X10653242Y9090482D01*
X10699978Y9090482D01*
X10663656Y9090482D02*
G01*
X10627334Y9033332D01*
X10530560Y9142298D02*
G01*
X10582630Y9142298D01*
X10587710Y9095562D01*
X10582630Y9100642D01*
X10566882Y9105976D01*
X10551388Y9105976D01*
X10535894Y9100642D01*
X10525480Y9090482D01*
X10520146Y9074734D01*
X10520146Y9064320D01*
X10525480Y9048826D01*
X10535894Y9038412D01*
X10551388Y9033332D01*
X10566882Y9033332D01*
X10582630Y9038412D01*
X10587710Y9043492D01*
X10593044Y9053906D01*
X9099981Y10815294D02*
G01*
X9099981Y10706328D01*
X9099981Y10815294D02*
G01*
X9053245Y10815294D01*
X9037751Y10810214D01*
X9032417Y10804880D01*
X9027337Y10794466D01*
X9027337Y10784052D01*
X9032417Y10773638D01*
X9037751Y10768558D01*
X9053245Y10763478D01*
X9099981Y10763478D01*
X9063659Y10763478D02*
G01*
X9027337Y10706328D01*
X8930563Y10799800D02*
G01*
X8935897Y10810214D01*
X8951391Y10815294D01*
X8961805Y10815294D01*
X8977299Y10810214D01*
X8987713Y10794466D01*
X8993047Y10768558D01*
X8993047Y10742650D01*
X8987713Y10721822D01*
X8977299Y10711408D01*
X8961805Y10706328D01*
X8956471Y10706328D01*
X8940977Y10711408D01*
X8930563Y10721822D01*
X8925483Y10737316D01*
X8925483Y10742650D01*
X8930563Y10758144D01*
X8940977Y10768558D01*
X8956471Y10773638D01*
X8961805Y10773638D01*
X8977299Y10768558D01*
X8987713Y10758144D01*
X8993047Y10742650D01*
X10042296Y7599984D02*
G01*
X9933330Y7599984D01*
X10042296Y7599984D02*
G01*
X10042296Y7646720D01*
X10037216Y7662214D01*
X10031882Y7667548D01*
X10021468Y7672628D01*
X10011054Y7672628D01*
X10000640Y7667548D01*
X9995560Y7662214D01*
X9990480Y7646720D01*
X9990480Y7599984D01*
X9990480Y7636306D02*
G01*
X9933330Y7672628D01*
X10042296Y7733080D02*
G01*
X10037216Y7717332D01*
X10026802Y7712252D01*
X10016388Y7712252D01*
X10005974Y7717332D01*
X10000640Y7727746D01*
X9995560Y7748574D01*
X9990480Y7764068D01*
X9980066Y7774482D01*
X9969652Y7779816D01*
X9953904Y7779816D01*
X9943490Y7774482D01*
X9938410Y7769402D01*
X9933330Y7753654D01*
X9933330Y7733080D01*
X9938410Y7717332D01*
X9943490Y7712252D01*
X9953904Y7706918D01*
X9969652Y7706918D01*
X9980066Y7712252D01*
X9990480Y7722666D01*
X9995560Y7738160D01*
X10000640Y7758988D01*
X10005974Y7769402D01*
X10016388Y7774482D01*
X10026802Y7774482D01*
X10037216Y7769402D01*
X10042296Y7753654D01*
X10042296Y7733080D01*
X12457658Y10699978D02*
G01*
X12566624Y10699978D01*
X12457658Y10699978D02*
G01*
X12457658Y10653242D01*
X12462738Y10637748D01*
X12468072Y10632414D01*
X12478486Y10627334D01*
X12488900Y10627334D01*
X12499314Y10632414D01*
X12504394Y10637748D01*
X12509474Y10653242D01*
X12509474Y10699978D01*
X12509474Y10663656D02*
G01*
X12566624Y10627334D01*
X12493980Y10525480D02*
G01*
X12509474Y10530560D01*
X12519888Y10540974D01*
X12525222Y10556468D01*
X12525222Y10561802D01*
X12519888Y10577296D01*
X12509474Y10587710D01*
X12493980Y10593044D01*
X12488900Y10593044D01*
X12473152Y10587710D01*
X12462738Y10577296D01*
X12457658Y10561802D01*
X12457658Y10556468D01*
X12462738Y10540974D01*
X12473152Y10530560D01*
X12493980Y10525480D01*
X12519888Y10525480D01*
X12546050Y10530560D01*
X12561544Y10540974D01*
X12566624Y10556468D01*
X12566624Y10566882D01*
X12561544Y10582630D01*
X12551130Y10587710D01*
X13842288Y7799984D02*
G01*
X13733322Y7799984D01*
X13842288Y7799984D02*
G01*
X13842288Y7846720D01*
X13837208Y7862214D01*
X13831874Y7867548D01*
X13821460Y7872628D01*
X13811046Y7872628D01*
X13800632Y7867548D01*
X13795552Y7862214D01*
X13790472Y7846720D01*
X13790472Y7799984D01*
X13790472Y7836306D02*
G01*
X13733322Y7872628D01*
X13821460Y7906918D02*
G01*
X13826794Y7917332D01*
X13842288Y7933080D01*
X13733322Y7933080D01*
X13842288Y7998358D02*
G01*
X13837208Y7982864D01*
X13821460Y7972450D01*
X13795552Y7967370D01*
X13780058Y7967370D01*
X13753896Y7972450D01*
X13738402Y7982864D01*
X13733322Y7998358D01*
X13733322Y8008772D01*
X13738402Y8024520D01*
X13753896Y8034934D01*
X13780058Y8040014D01*
X13795552Y8040014D01*
X13821460Y8034934D01*
X13837208Y8024520D01*
X13842288Y8008772D01*
X13842288Y7998358D01*
X16857649Y11299977D02*
G01*
X16966615Y11299977D01*
X16857649Y11299977D02*
G01*
X16857649Y11253241D01*
X16862729Y11237747D01*
X16868063Y11232413D01*
X16878477Y11227333D01*
X16888891Y11227333D01*
X16899305Y11232413D01*
X16904385Y11237747D01*
X16909465Y11253241D01*
X16909465Y11299977D01*
X16909465Y11263655D02*
G01*
X16966615Y11227333D01*
X16878477Y11193043D02*
G01*
X16873143Y11182629D01*
X16857649Y11166881D01*
X16966615Y11166881D01*
X16878477Y11132591D02*
G01*
X16873143Y11122177D01*
X16857649Y11106683D01*
X16966615Y11106683D01*
X17342281Y7899984D02*
G01*
X17233315Y7899984D01*
X17342281Y7899984D02*
G01*
X17342281Y7946720D01*
X17337201Y7962214D01*
X17331867Y7967548D01*
X17321453Y7972628D01*
X17311039Y7972628D01*
X17300625Y7967548D01*
X17295545Y7962214D01*
X17290465Y7946720D01*
X17290465Y7899984D01*
X17290465Y7936306D02*
G01*
X17233315Y7972628D01*
X17321453Y8006918D02*
G01*
X17326787Y8017332D01*
X17342281Y8033080D01*
X17233315Y8033080D01*
X17316373Y8072450D02*
G01*
X17321453Y8072450D01*
X17331867Y8077784D01*
X17337201Y8082864D01*
X17342281Y8093278D01*
X17342281Y8114106D01*
X17337201Y8124520D01*
X17331867Y8129600D01*
X17321453Y8134934D01*
X17311039Y8134934D01*
X17300625Y8129600D01*
X17285131Y8119186D01*
X17233315Y8067370D01*
X17233315Y8140014D01*
X8999981Y6215303D02*
G01*
X8999981Y6106337D01*
X8999981Y6215303D02*
G01*
X8953245Y6215303D01*
X8937752Y6210223D01*
X8932418Y6204889D01*
X8927338Y6194475D01*
X8927338Y6184061D01*
X8932418Y6173647D01*
X8937752Y6168567D01*
X8953245Y6163487D01*
X8999981Y6163487D01*
X8963659Y6163487D02*
G01*
X8927338Y6106337D01*
X8893047Y6194475D02*
G01*
X8882634Y6199809D01*
X8866886Y6215303D01*
X8866886Y6106337D01*
X8822181Y6215303D02*
G01*
X8765031Y6215303D01*
X8796274Y6173647D01*
X8780779Y6173647D01*
X8770365Y6168567D01*
X8765031Y6163487D01*
X8759952Y6147739D01*
X8759952Y6137325D01*
X8765031Y6121831D01*
X8775445Y6111417D01*
X8791193Y6106337D01*
X8806688Y6106337D01*
X8822181Y6111417D01*
X8827515Y6116497D01*
X8832595Y6126911D01*
X17784648Y11999976D02*
G01*
X17893614Y11999976D01*
X17784648Y11999976D02*
G01*
X17784648Y11953239D01*
X17789728Y11937745D01*
X17795062Y11932412D01*
X17805476Y11927331D01*
X17815890Y11927331D01*
X17826304Y11932412D01*
X17831384Y11937745D01*
X17836464Y11953239D01*
X17836464Y11999976D01*
X17836464Y11963654D02*
G01*
X17893614Y11927331D01*
X17805476Y11893042D02*
G01*
X17800142Y11882628D01*
X17784648Y11866879D01*
X17893614Y11866879D01*
X17784648Y11770360D02*
G01*
X17784648Y11822176D01*
X17831384Y11827510D01*
X17826304Y11822176D01*
X17820970Y11806681D01*
X17820970Y11791187D01*
X17826304Y11775439D01*
X17836464Y11765026D01*
X17852212Y11759945D01*
X17862626Y11759945D01*
X17878120Y11765026D01*
X17888534Y11775439D01*
X17893614Y11791187D01*
X17893614Y11806681D01*
X17888534Y11822176D01*
X17883454Y11827510D01*
X17873040Y11832589D01*
X2757677Y9999979D02*
G01*
X2866643Y9999979D01*
X2757677Y9999979D02*
G01*
X2757677Y9953244D01*
X2762758Y9937750D01*
X2768091Y9932415D01*
X2778506Y9927336D01*
X2788920Y9927336D01*
X2799334Y9932415D01*
X2804413Y9937750D01*
X2809493Y9953244D01*
X2809493Y9999979D01*
X2809493Y9963658D02*
G01*
X2866643Y9927336D01*
X2778506Y9893045D02*
G01*
X2773172Y9882631D01*
X2757677Y9866884D01*
X2866643Y9866884D01*
X2773172Y9770363D02*
G01*
X2762758Y9775444D01*
X2757677Y9791192D01*
X2757677Y9801605D01*
X2762758Y9817100D01*
X2778506Y9827513D01*
X2804413Y9832594D01*
X2830322Y9832594D01*
X2851150Y9827513D01*
X2861563Y9817100D01*
X2866643Y9801605D01*
X2866643Y9796271D01*
X2861563Y9780778D01*
X2851150Y9770363D01*
X2835656Y9765029D01*
X2830322Y9765029D01*
X2814827Y9770363D01*
X2804413Y9780778D01*
X2799334Y9796271D01*
X2799334Y9801605D01*
X2804413Y9817100D01*
X2814827Y9827513D01*
X2830322Y9832594D01*
X5699988Y8215299D02*
G01*
X5699988Y8106333D01*
X5699988Y8215299D02*
G01*
X5653252Y8215299D01*
X5637758Y8210219D01*
X5632424Y8204885D01*
X5627344Y8194471D01*
X5627344Y8184057D01*
X5632424Y8173643D01*
X5637758Y8168563D01*
X5653252Y8163483D01*
X5699988Y8163483D01*
X5663666Y8163483D02*
G01*
X5627344Y8106333D01*
X5593054Y8194471D02*
G01*
X5582640Y8199805D01*
X5566892Y8215299D01*
X5566892Y8106333D01*
X5506694Y8215299D02*
G01*
X5522188Y8210219D01*
X5527522Y8199805D01*
X5527522Y8189391D01*
X5522188Y8178977D01*
X5512028Y8173643D01*
X5491200Y8168563D01*
X5475452Y8163483D01*
X5465038Y8153069D01*
X5459958Y8142655D01*
X5459958Y8126907D01*
X5465038Y8116493D01*
X5470372Y8111413D01*
X5485866Y8106333D01*
X5506694Y8106333D01*
X5522188Y8111413D01*
X5527522Y8116493D01*
X5532602Y8126907D01*
X5532602Y8142655D01*
X5527522Y8153069D01*
X5517108Y8163483D01*
X5501614Y8168563D01*
X5480786Y8173643D01*
X5470372Y8178977D01*
X5465038Y8189391D01*
X5465038Y8199805D01*
X5470372Y8210219D01*
X5485866Y8215299D01*
X5506694Y8215299D01*
X7473076Y10198364D02*
G01*
X7473076Y10089398D01*
X7473076Y10198364D02*
G01*
X7426340Y10198364D01*
X7410846Y10193284D01*
X7405512Y10187950D01*
X7400432Y10177536D01*
X7400432Y10167122D01*
X7405512Y10156708D01*
X7410846Y10151628D01*
X7426340Y10146548D01*
X7473076Y10146548D01*
X7436754Y10146548D02*
G01*
X7400432Y10089398D01*
X7366142Y10177536D02*
G01*
X7355728Y10182870D01*
X7339980Y10198364D01*
X7339980Y10089398D01*
X7238126Y10162042D02*
G01*
X7243460Y10146548D01*
X7253874Y10136134D01*
X7269368Y10130800D01*
X7274702Y10130800D01*
X7290196Y10136134D01*
X7300610Y10146548D01*
X7305690Y10162042D01*
X7305690Y10167122D01*
X7300610Y10182870D01*
X7290196Y10193284D01*
X7274702Y10198364D01*
X7269368Y10198364D01*
X7253874Y10193284D01*
X7243460Y10182870D01*
X7238126Y10162042D01*
X7238126Y10136134D01*
X7243460Y10109972D01*
X7253874Y10094478D01*
X7269368Y10089398D01*
X7279782Y10089398D01*
X7295276Y10094478D01*
X7300610Y10104892D01*
X10699978Y8642299D02*
G01*
X10699978Y8533333D01*
X10699978Y8642299D02*
G01*
X10653242Y8642299D01*
X10637748Y8637219D01*
X10632414Y8631885D01*
X10627334Y8621471D01*
X10627334Y8611057D01*
X10632414Y8600643D01*
X10637748Y8595563D01*
X10653242Y8590483D01*
X10699978Y8590483D01*
X10663656Y8590483D02*
G01*
X10627334Y8533333D01*
X10587710Y8616391D02*
G01*
X10587710Y8621471D01*
X10582630Y8631885D01*
X10577296Y8637219D01*
X10566882Y8642299D01*
X10546308Y8642299D01*
X10535894Y8637219D01*
X10530560Y8631885D01*
X10525480Y8621471D01*
X10525480Y8611057D01*
X10530560Y8600643D01*
X10540974Y8585149D01*
X10593044Y8533333D01*
X10520146Y8533333D01*
X10454868Y8642299D02*
G01*
X10470362Y8637219D01*
X10480776Y8621471D01*
X10485856Y8595563D01*
X10485856Y8580069D01*
X10480776Y8553907D01*
X10470362Y8538413D01*
X10454868Y8533333D01*
X10444454Y8533333D01*
X10428706Y8538413D01*
X10418292Y8553907D01*
X10413212Y8580069D01*
X10413212Y8595563D01*
X10418292Y8621471D01*
X10428706Y8637219D01*
X10444454Y8642299D01*
X10454868Y8642299D01*
X8699982Y10715294D02*
G01*
X8699982Y10606328D01*
X8699982Y10715294D02*
G01*
X8653246Y10715294D01*
X8637752Y10710214D01*
X8632418Y10704880D01*
X8627338Y10694466D01*
X8627338Y10684052D01*
X8632418Y10673638D01*
X8637752Y10668558D01*
X8653246Y10663478D01*
X8699982Y10663478D01*
X8663660Y10663478D02*
G01*
X8627338Y10606328D01*
X8587714Y10689386D02*
G01*
X8587714Y10694466D01*
X8582634Y10704880D01*
X8577300Y10710214D01*
X8566886Y10715294D01*
X8546312Y10715294D01*
X8535898Y10710214D01*
X8530564Y10704880D01*
X8525484Y10694466D01*
X8525484Y10684052D01*
X8530564Y10673638D01*
X8540978Y10658144D01*
X8593048Y10606328D01*
X8520150Y10606328D01*
X8485860Y10694466D02*
G01*
X8475446Y10699800D01*
X8459952Y10715294D01*
X8459952Y10606328D01*
X9099981Y7815300D02*
G01*
X9099981Y7706334D01*
X9099981Y7815300D02*
G01*
X9053245Y7815300D01*
X9037751Y7810220D01*
X9032417Y7804886D01*
X9027337Y7794472D01*
X9027337Y7784058D01*
X9032417Y7773644D01*
X9037751Y7768564D01*
X9053245Y7763484D01*
X9099981Y7763484D01*
X9063659Y7763484D02*
G01*
X9027337Y7706334D01*
X8987713Y7789392D02*
G01*
X8987713Y7794472D01*
X8982633Y7804886D01*
X8977299Y7810220D01*
X8966885Y7815300D01*
X8946311Y7815300D01*
X8935897Y7810220D01*
X8930563Y7804886D01*
X8925483Y7794472D01*
X8925483Y7784058D01*
X8930563Y7773644D01*
X8940977Y7758150D01*
X8993047Y7706334D01*
X8920149Y7706334D01*
X8875445Y7815300D02*
G01*
X8818295Y7815300D01*
X8849537Y7773644D01*
X8834043Y7773644D01*
X8823629Y7768564D01*
X8818295Y7763484D01*
X8813215Y7747736D01*
X8813215Y7737322D01*
X8818295Y7721828D01*
X8828709Y7711414D01*
X8844457Y7706334D01*
X8859951Y7706334D01*
X8875445Y7711414D01*
X8880779Y7716494D01*
X8885859Y7726908D01*
X12399975Y10415295D02*
G01*
X12399975Y10306329D01*
X12399975Y10415295D02*
G01*
X12353239Y10415295D01*
X12337745Y10410215D01*
X12332411Y10404881D01*
X12327331Y10394467D01*
X12327331Y10384053D01*
X12332411Y10373639D01*
X12337745Y10368559D01*
X12353239Y10363479D01*
X12399975Y10363479D01*
X12363653Y10363479D02*
G01*
X12327331Y10306329D01*
X12287707Y10389387D02*
G01*
X12287707Y10394467D01*
X12282627Y10404881D01*
X12277293Y10410215D01*
X12266879Y10415295D01*
X12246305Y10415295D01*
X12235891Y10410215D01*
X12230557Y10404881D01*
X12225477Y10394467D01*
X12225477Y10384053D01*
X12230557Y10373639D01*
X12240971Y10358145D01*
X12293041Y10306329D01*
X12220143Y10306329D01*
X12134037Y10415295D02*
G01*
X12185853Y10342651D01*
X12107875Y10342651D01*
X12134037Y10415295D02*
G01*
X12134037Y10306329D01*
X12899974Y8115300D02*
G01*
X12899974Y8006334D01*
X12899974Y8115300D02*
G01*
X12853238Y8115300D01*
X12837744Y8110220D01*
X12832410Y8104886D01*
X12827330Y8094471D01*
X12827330Y8084058D01*
X12832410Y8073644D01*
X12837744Y8068563D01*
X12853238Y8063484D01*
X12899974Y8063484D01*
X12863652Y8063484D02*
G01*
X12827330Y8006334D01*
X12787706Y8089392D02*
G01*
X12787706Y8094471D01*
X12782626Y8104886D01*
X12777292Y8110220D01*
X12766878Y8115300D01*
X12746304Y8115300D01*
X12735890Y8110220D01*
X12730556Y8104886D01*
X12725476Y8094471D01*
X12725476Y8084058D01*
X12730556Y8073644D01*
X12740970Y8058150D01*
X12793040Y8006334D01*
X12720142Y8006334D01*
X12623622Y8115300D02*
G01*
X12675438Y8115300D01*
X12680772Y8068563D01*
X12675438Y8073644D01*
X12659944Y8078978D01*
X12644450Y8078978D01*
X12628702Y8073644D01*
X12618288Y8063484D01*
X12613208Y8047736D01*
X12613208Y8037321D01*
X12618288Y8021828D01*
X12628702Y8011413D01*
X12644450Y8006334D01*
X12659944Y8006334D01*
X12675438Y8011413D01*
X12680772Y8016494D01*
X12685852Y8026908D01*
X16499966Y11015294D02*
G01*
X16499966Y10906328D01*
X16499966Y11015294D02*
G01*
X16453231Y11015294D01*
X16437736Y11010214D01*
X16432402Y11004880D01*
X16427322Y10994466D01*
X16427322Y10984052D01*
X16432402Y10973638D01*
X16437736Y10968558D01*
X16453231Y10963478D01*
X16499966Y10963478D01*
X16463645Y10963478D02*
G01*
X16427322Y10906328D01*
X16387699Y10989386D02*
G01*
X16387699Y10994466D01*
X16382618Y11004880D01*
X16377284Y11010214D01*
X16366870Y11015294D01*
X16346297Y11015294D01*
X16335883Y11010214D01*
X16330549Y11004880D01*
X16325468Y10994466D01*
X16325468Y10984052D01*
X16330549Y10973638D01*
X16340963Y10958144D01*
X16393033Y10906328D01*
X16320134Y10906328D01*
X16223615Y10999800D02*
G01*
X16228695Y11010214D01*
X16244443Y11015294D01*
X16254856Y11015294D01*
X16270350Y11010214D01*
X16280765Y10994466D01*
X16285845Y10968558D01*
X16285845Y10942650D01*
X16280765Y10921822D01*
X16270350Y10911408D01*
X16254856Y10906328D01*
X16249522Y10906328D01*
X16234029Y10911408D01*
X16223615Y10921822D01*
X16218281Y10937316D01*
X16218281Y10942650D01*
X16223615Y10958144D01*
X16234029Y10968558D01*
X16249522Y10973638D01*
X16254856Y10973638D01*
X16270350Y10968558D01*
X16280765Y10958144D01*
X16285845Y10942650D01*
X16399967Y8215299D02*
G01*
X16399967Y8106333D01*
X16399967Y8215299D02*
G01*
X16353231Y8215299D01*
X16337737Y8210219D01*
X16332403Y8204885D01*
X16327323Y8194471D01*
X16327323Y8184057D01*
X16332403Y8173643D01*
X16337737Y8168563D01*
X16353231Y8163483D01*
X16399967Y8163483D01*
X16363645Y8163483D02*
G01*
X16327323Y8106333D01*
X16287699Y8189391D02*
G01*
X16287699Y8194471D01*
X16282619Y8204885D01*
X16277285Y8210219D01*
X16266871Y8215299D01*
X16246297Y8215299D01*
X16235883Y8210219D01*
X16230549Y8204885D01*
X16225469Y8194471D01*
X16225469Y8184057D01*
X16230549Y8173643D01*
X16240963Y8158149D01*
X16293033Y8106333D01*
X16220135Y8106333D01*
X16113201Y8215299D02*
G01*
X16165017Y8106333D01*
X16185845Y8215299D02*
G01*
X16113201Y8215299D01*
X8499983Y6215303D02*
G01*
X8499983Y6106337D01*
X8499983Y6215303D02*
G01*
X8453247Y6215303D01*
X8437752Y6210223D01*
X8432418Y6204889D01*
X8427338Y6194475D01*
X8427338Y6184061D01*
X8432418Y6173647D01*
X8437752Y6168567D01*
X8453247Y6163487D01*
X8499983Y6163487D01*
X8463661Y6163487D02*
G01*
X8427338Y6106337D01*
X8387715Y6189395D02*
G01*
X8387715Y6194475D01*
X8382634Y6204889D01*
X8377300Y6210223D01*
X8366886Y6215303D01*
X8346313Y6215303D01*
X8335899Y6210223D01*
X8330565Y6204889D01*
X8325484Y6194475D01*
X8325484Y6184061D01*
X8330565Y6173647D01*
X8340979Y6158153D01*
X8393049Y6106337D01*
X8320150Y6106337D01*
X8259952Y6215303D02*
G01*
X8275447Y6210223D01*
X8280781Y6199809D01*
X8280781Y6189395D01*
X8275447Y6178981D01*
X8265033Y6173647D01*
X8244459Y6168567D01*
X8228711Y6163487D01*
X8218297Y6153073D01*
X8213216Y6142659D01*
X8213216Y6126911D01*
X8218297Y6116497D01*
X8223631Y6111417D01*
X8239125Y6106337D01*
X8259952Y6106337D01*
X8275447Y6111417D01*
X8280781Y6116497D01*
X8285861Y6126911D01*
X8285861Y6142659D01*
X8280781Y6153073D01*
X8270366Y6163487D01*
X8254872Y6168567D01*
X8234045Y6173647D01*
X8223631Y6178981D01*
X8218297Y6189395D01*
X8218297Y6199809D01*
X8223631Y6210223D01*
X8239125Y6215303D01*
X8259952Y6215303D01*
X3490353Y10181099D02*
G01*
X3490353Y10040099D01*
X3309632Y10040099D02*
G01*
X3309632Y10181099D01*
X3324872Y10196339D02*
G01*
X3475113Y10196339D01*
X3490353Y9818860D02*
G01*
X3490353Y9959860D01*
X3309632Y9959860D02*
G01*
X3309632Y9818860D01*
X3324872Y9803620D02*
G01*
X3475113Y9803620D01*
X5418869Y9990340D02*
G01*
X5559869Y9990340D01*
X5559869Y9809619D02*
G01*
X5418869Y9809619D01*
X5403629Y9824859D02*
G01*
X5403629Y9975100D01*
X5781108Y9990340D02*
G01*
X5640108Y9990340D01*
X5640108Y9809619D02*
G01*
X5781108Y9809619D01*
X5796348Y9824859D02*
G01*
X5796348Y9975100D01*
X5418869Y7690345D02*
G01*
X5559869Y7690345D01*
X5559869Y7509624D02*
G01*
X5418869Y7509624D01*
X5403629Y7524864D02*
G01*
X5403629Y7675105D01*
X5781108Y7690345D02*
G01*
X5640108Y7690345D01*
X5640108Y7509624D02*
G01*
X5781108Y7509624D01*
X5796348Y7524864D02*
G01*
X5796348Y7675105D01*
X7605504Y10619219D02*
G01*
X7746504Y10619219D01*
X7746504Y10438498D02*
G01*
X7605504Y10438498D01*
X7590264Y10453738D02*
G01*
X7590264Y10603979D01*
X7967743Y10619219D02*
G01*
X7826743Y10619219D01*
X7826743Y10438498D02*
G01*
X7967743Y10438498D01*
X7982983Y10453738D02*
G01*
X7982983Y10603979D01*
X11109617Y8418863D02*
G01*
X11109617Y8559863D01*
X11290338Y8559863D02*
G01*
X11290338Y8418863D01*
X11275098Y8403623D02*
G01*
X11124857Y8403623D01*
X11109617Y8781102D02*
G01*
X11109617Y8640102D01*
X11290338Y8640102D02*
G01*
X11290338Y8781102D01*
X11275098Y8796342D02*
G01*
X11124857Y8796342D01*
X8318863Y11190338D02*
G01*
X8459863Y11190338D01*
X8459863Y11009617D02*
G01*
X8318863Y11009617D01*
X8303623Y11024857D02*
G01*
X8303623Y11175098D01*
X8681102Y11190338D02*
G01*
X8540102Y11190338D01*
X8540102Y11009617D02*
G01*
X8681102Y11009617D01*
X8696342Y11024857D02*
G01*
X8696342Y11175098D01*
X9118861Y7390345D02*
G01*
X9259862Y7390345D01*
X9259862Y7209624D02*
G01*
X9118861Y7209624D01*
X9103621Y7224864D02*
G01*
X9103621Y7375105D01*
X9481101Y7390345D02*
G01*
X9340100Y7390345D01*
X9340100Y7209624D02*
G01*
X9481101Y7209624D01*
X9496341Y7224864D02*
G01*
X9496341Y7375105D01*
X12018855Y10990338D02*
G01*
X12159856Y10990338D01*
X12159856Y10809617D02*
G01*
X12018855Y10809617D01*
X12003615Y10824857D02*
G01*
X12003615Y10975098D01*
X12381095Y10990338D02*
G01*
X12240094Y10990338D01*
X12240094Y10809617D02*
G01*
X12381095Y10809617D01*
X12396335Y10824857D02*
G01*
X12396335Y10975098D01*
X12918854Y7690345D02*
G01*
X13059854Y7690345D01*
X13059854Y7509624D02*
G01*
X12918854Y7509624D01*
X12903614Y7524864D02*
G01*
X12903614Y7675105D01*
X13281093Y7690345D02*
G01*
X13140093Y7690345D01*
X13140093Y7509624D02*
G01*
X13281093Y7509624D01*
X13296333Y7524864D02*
G01*
X13296333Y7675105D01*
X16418847Y11490337D02*
G01*
X16559847Y11490337D01*
X16559847Y11309616D02*
G01*
X16418847Y11309616D01*
X16403607Y11324856D02*
G01*
X16403607Y11475097D01*
X16781086Y11490337D02*
G01*
X16640086Y11490337D01*
X16640086Y11309616D02*
G01*
X16781086Y11309616D01*
X16796326Y11324856D02*
G01*
X16796326Y11475097D01*
X16418847Y7790345D02*
G01*
X16559847Y7790345D01*
X16559847Y7609624D02*
G01*
X16418847Y7609624D01*
X16403607Y7624864D02*
G01*
X16403607Y7775105D01*
X16781086Y7790345D02*
G01*
X16640086Y7790345D01*
X16640086Y7609624D02*
G01*
X16781086Y7609624D01*
X16796326Y7624864D02*
G01*
X16796326Y7775105D01*
X8218863Y6690347D02*
G01*
X8359863Y6690347D01*
X8359863Y6509626D02*
G01*
X8218863Y6509626D01*
X8203623Y6524866D02*
G01*
X8203623Y6675107D01*
X8581102Y6690347D02*
G01*
X8440102Y6690347D01*
X8440102Y6509626D02*
G01*
X8581102Y6509626D01*
X8596342Y6524866D02*
G01*
X8596342Y6675107D01*
D11*
X2183993Y12153976D02*
G01*
X4215993Y12153976D01*
X4215993Y11645976D01*
X2183993Y11645976D01*
X2183993Y12153976D01*
D10*
X3152373Y9508271D02*
G01*
X3023880Y9508271D01*
X3023880Y9691690D01*
X3152373Y9691690D01*
X3247613Y9508271D02*
G01*
X3376107Y9508271D01*
X3376107Y9691690D01*
X3247613Y9691690D01*
X6052367Y9608271D02*
G01*
X5923874Y9608271D01*
X5923874Y9791689D01*
X6052367Y9791689D01*
X6147607Y9608271D02*
G01*
X6276101Y9608271D01*
X6276101Y9791689D01*
X6147607Y9791689D01*
X6152367Y7908274D02*
G01*
X6023874Y7908274D01*
X6023874Y8091693D01*
X6152367Y8091693D01*
X6247607Y7908274D02*
G01*
X6376101Y7908274D01*
X6376101Y8091693D01*
X6247607Y8091693D01*
X8344466Y10257530D02*
G01*
X8344466Y10129037D01*
X8161047Y10129037D01*
X8161047Y10257530D01*
X8344466Y10352770D02*
G01*
X8344466Y10481264D01*
X8161047Y10481264D01*
X8161047Y10352770D01*
X10652358Y8808272D02*
G01*
X10523865Y8808272D01*
X10523865Y8991691D01*
X10652358Y8991691D01*
X10747598Y8808272D02*
G01*
X10876092Y8808272D01*
X10876092Y8991691D01*
X10747598Y8991691D01*
X9091691Y10952358D02*
G01*
X9091691Y10823864D01*
X8908272Y10823864D01*
X8908272Y10952358D01*
X9091691Y11047597D02*
G01*
X9091691Y11176091D01*
X8908272Y11176091D01*
X8908272Y11047597D01*
X9708271Y7647604D02*
G01*
X9708271Y7776098D01*
X9891689Y7776098D01*
X9891689Y7647604D01*
X9708271Y7552364D02*
G01*
X9708271Y7423871D01*
X9891689Y7423871D01*
X9891689Y7552364D01*
X12791683Y10652358D02*
G01*
X12791683Y10523865D01*
X12608265Y10523865D01*
X12608265Y10652358D01*
X12791683Y10747598D02*
G01*
X12791683Y10876092D01*
X12608265Y10876092D01*
X12608265Y10747598D01*
X13508263Y7847604D02*
G01*
X13508263Y7976097D01*
X13691682Y7976097D01*
X13691682Y7847604D01*
X13508263Y7752364D02*
G01*
X13508263Y7623870D01*
X13691682Y7623870D01*
X13691682Y7752364D01*
X17191675Y11252357D02*
G01*
X17191675Y11123863D01*
X17008256Y11123863D01*
X17008256Y11252357D01*
X17191675Y11347597D02*
G01*
X17191675Y11476090D01*
X17008256Y11476090D01*
X17008256Y11347597D01*
X17008256Y7947604D02*
G01*
X17008256Y8076097D01*
X17191675Y8076097D01*
X17191675Y7947604D01*
X17008256Y7852364D02*
G01*
X17008256Y7723870D01*
X17191675Y7723870D01*
X17191675Y7852364D01*
X8891691Y6352367D02*
G01*
X8891691Y6223873D01*
X8708273Y6223873D01*
X8708273Y6352367D01*
X8891691Y6447607D02*
G01*
X8891691Y6576100D01*
X8708273Y6576100D01*
X8708273Y6447607D01*
X17508255Y11947596D02*
G01*
X17508255Y12076089D01*
X17691674Y12076089D01*
X17691674Y11947596D01*
X17508255Y11852356D02*
G01*
X17508255Y11723862D01*
X17691674Y11723862D01*
X17691674Y11852356D01*
X3091703Y9952360D02*
G01*
X3091703Y9823866D01*
X2908284Y9823866D01*
X2908284Y9952360D01*
X3091703Y10047599D02*
G01*
X3091703Y10176093D01*
X2908284Y10176093D01*
X2908284Y10047599D01*
X5647608Y9591690D02*
G01*
X5776102Y9591690D01*
X5776102Y9408271D01*
X5647608Y9408271D01*
X5552368Y9591690D02*
G01*
X5423875Y9591690D01*
X5423875Y9408271D01*
X5552368Y9408271D01*
X5647608Y8091693D02*
G01*
X5776102Y8091693D01*
X5776102Y7908274D01*
X5647608Y7908274D01*
X5552368Y8091693D02*
G01*
X5423875Y8091693D01*
X5423875Y7908274D01*
X5552368Y7908274D01*
X7820695Y10274757D02*
G01*
X7949189Y10274757D01*
X7949189Y10091338D01*
X7820695Y10091338D01*
X7725455Y10274757D02*
G01*
X7596962Y10274757D01*
X7596962Y10091338D01*
X7725455Y10091338D01*
X10652358Y8308273D02*
G01*
X10523865Y8308273D01*
X10523865Y8491692D01*
X10652358Y8491692D01*
X10747598Y8308273D02*
G01*
X10876092Y8308273D01*
X10876092Y8491692D01*
X10747598Y8491692D01*
X8547602Y10891687D02*
G01*
X8676096Y10891687D01*
X8676096Y10708269D01*
X8547602Y10708269D01*
X8452363Y10891687D02*
G01*
X8323869Y10891687D01*
X8323869Y10708269D01*
X8452363Y10708269D01*
X9347601Y7891693D02*
G01*
X9476094Y7891693D01*
X9476094Y7708275D01*
X9347601Y7708275D01*
X9252361Y7891693D02*
G01*
X9123867Y7891693D01*
X9123867Y7708275D01*
X9252361Y7708275D01*
X12247595Y10691688D02*
G01*
X12376089Y10691688D01*
X12376089Y10508269D01*
X12247595Y10508269D01*
X12152355Y10691688D02*
G01*
X12023862Y10691688D01*
X12023862Y10508269D01*
X12152355Y10508269D01*
X13147593Y8091693D02*
G01*
X13276087Y8091693D01*
X13276087Y7908274D01*
X13147593Y7908274D01*
X13052353Y8091693D02*
G01*
X12923860Y8091693D01*
X12923860Y7908274D01*
X13052353Y7908274D01*
X16647586Y11191687D02*
G01*
X16776080Y11191687D01*
X16776080Y11008268D01*
X16647586Y11008268D01*
X16552346Y11191687D02*
G01*
X16423853Y11191687D01*
X16423853Y11008268D01*
X16552346Y11008268D01*
X16647586Y8191693D02*
G01*
X16776080Y8191693D01*
X16776080Y8008274D01*
X16647586Y8008274D01*
X16552346Y8191693D02*
G01*
X16423853Y8191693D01*
X16423853Y8008274D01*
X16552346Y8008274D01*
X8447603Y6391696D02*
G01*
X8576096Y6391696D01*
X8576096Y6208278D01*
X8447603Y6208278D01*
X8352363Y6391696D02*
G01*
X8223869Y6391696D01*
X8223869Y6208278D01*
X8352363Y6208278D01*
G75*
G01*
X3309633Y10181100D02*
G02*
X3324873Y10196340I15240J0D01*
G75*
G01*
X3475114Y10196340D02*
G02*
X3490354Y10181100I0J-15240D01*
G75*
G01*
X3309633Y9818860D02*
G03*
X3324873Y9803620I15240J0D01*
G75*
G01*
X3475114Y9803620D02*
G03*
X3490354Y9818860I0J15240D01*
G75*
G01*
X5418869Y9809620D02*
G02*
X5403629Y9824860I0J15240D01*
G75*
G01*
X5403629Y9975101D02*
G02*
X5418869Y9990341I15240J0D01*
G75*
G01*
X5781109Y9809620D02*
G03*
X5796349Y9824860I0J15240D01*
G75*
G01*
X5796349Y9975101D02*
G03*
X5781109Y9990341I-15240J0D01*
G75*
G01*
X5418869Y7509624D02*
G02*
X5403629Y7524864I0J15240D01*
G75*
G01*
X5403629Y7675105D02*
G02*
X5418869Y7690345I15240J0D01*
G75*
G01*
X5781109Y7509624D02*
G03*
X5796349Y7524864I0J15240D01*
G75*
G01*
X5796349Y7675105D02*
G03*
X5781109Y7690345I-15240J0D01*
G75*
G01*
X7605504Y10438498D02*
G02*
X7590264Y10453738I0J15240D01*
G75*
G01*
X7590264Y10603979D02*
G02*
X7605504Y10619219I15240J0D01*
G75*
G01*
X7967744Y10438498D02*
G03*
X7982984Y10453738I0J15240D01*
G75*
G01*
X7982984Y10603979D02*
G03*
X7967744Y10619219I-15240J0D01*
G75*
G01*
X11290338Y8418863D02*
G02*
X11275098Y8403623I-15240J0D01*
G75*
G01*
X11124857Y8403623D02*
G02*
X11109617Y8418863I0J15240D01*
G75*
G01*
X11290338Y8781103D02*
G03*
X11275098Y8796343I-15240J0D01*
G75*
G01*
X11124857Y8796343D02*
G03*
X11109617Y8781103I0J-15240D01*
G75*
G01*
X8318863Y11009617D02*
G02*
X8303623Y11024857I0J15240D01*
G75*
G01*
X8303623Y11175098D02*
G02*
X8318863Y11190338I15240J0D01*
G75*
G01*
X8681103Y11009617D02*
G03*
X8696343Y11024857I0J15240D01*
G75*
G01*
X8696343Y11175098D02*
G03*
X8681103Y11190338I-15240J0D01*
G75*
G01*
X9118862Y7209625D02*
G02*
X9103622Y7224865I0J15240D01*
G75*
G01*
X9103622Y7375106D02*
G02*
X9118862Y7390346I15240J0D01*
G75*
G01*
X9481101Y7209625D02*
G03*
X9496341Y7224865I0J15240D01*
G75*
G01*
X9496341Y7375106D02*
G03*
X9481101Y7390346I-15240J0D01*
G75*
G01*
X12018856Y10809618D02*
G02*
X12003616Y10824858I0J15240D01*
G75*
G01*
X12003616Y10975099D02*
G02*
X12018856Y10990339I15240J0D01*
G75*
G01*
X12381095Y10809618D02*
G03*
X12396335Y10824858I0J15240D01*
G75*
G01*
X12396335Y10975099D02*
G03*
X12381095Y10990339I-15240J0D01*
G75*
G01*
X12918854Y7509624D02*
G02*
X12903614Y7524864I0J15240D01*
G75*
G01*
X12903614Y7675105D02*
G02*
X12918854Y7690345I15240J0D01*
G75*
G01*
X13281094Y7509624D02*
G03*
X13296334Y7524864I0J15240D01*
G75*
G01*
X13296334Y7675105D02*
G03*
X13281094Y7690345I-15240J0D01*
G75*
G01*
X16418847Y11309617D02*
G02*
X16403607Y11324857I0J15240D01*
G75*
G01*
X16403607Y11475098D02*
G02*
X16418847Y11490338I15240J0D01*
G75*
G01*
X16781087Y11309617D02*
G03*
X16796327Y11324857I0J15240D01*
G75*
G01*
X16796327Y11475098D02*
G03*
X16781087Y11490338I-15240J0D01*
G75*
G01*
X16418847Y7609624D02*
G02*
X16403607Y7624864I0J15240D01*
G75*
G01*
X16403607Y7775105D02*
G02*
X16418847Y7790345I15240J0D01*
G75*
G01*
X16781087Y7609624D02*
G03*
X16796327Y7624864I0J15240D01*
G75*
G01*
X16796327Y7775105D02*
G03*
X16781087Y7790345I-15240J0D01*
G75*
G01*
X8218863Y6509626D02*
G02*
X8203623Y6524866I0J15240D01*
G75*
G01*
X8203623Y6675107D02*
G02*
X8218863Y6690347I15240J0D01*
G75*
G01*
X8581103Y6509626D02*
G03*
X8596343Y6524866I0J15240D01*
G75*
G01*
X8596343Y6675107D02*
G03*
X8581103Y6690347I-15240J0D01*
D12*
G75*
G01
X2193315Y12212277D02*
G03X2193315Y12212277I-11476J0D01*
M02*
