G04 Layer: BottomPasteMaskLayer*
G04 EasyEDA v6.5.38, 2023-12-04 19:03:53*
G04 b5bff3c8101f4f8dbc120533c369a027,9f3f2715377c499da2f37e4e16011465,10*
G04 Gerber Generator version 0.2*
G04 Scale: 100 percent, Rotated: No, Reflected: No *
G04 Dimensions in millimeters *
G04 leading zeros omitted , absolute positions ,4 integer and 5 decimal *
%FSLAX45Y45*%
%MOMM*%

%ADD10C,0.0001*%

%LPD*%
G36*
X3424986Y9957968D02*
G01*
X3424986Y9912959D01*
X3379978Y9912959D01*
X3379978Y9957003D01*
X3338017Y9957460D01*
X3332987Y9952482D01*
X3332987Y9837470D01*
X3338017Y9832492D01*
X3465982Y9832492D01*
X3471011Y9837470D01*
X3471011Y9952482D01*
X3465982Y9957460D01*
G37*
G36*
X3338017Y10172496D02*
G01*
X3332987Y10167467D01*
X3332987Y10052456D01*
X3338017Y10047478D01*
X3379978Y10047478D01*
X3379978Y10091978D01*
X3424986Y10091978D01*
X3424986Y10047986D01*
X3465982Y10047478D01*
X3471011Y10052456D01*
X3471011Y10167467D01*
X3465982Y10172496D01*
G37*
G36*
X5647486Y9970973D02*
G01*
X5642508Y9965994D01*
X5642000Y9924999D01*
X5687009Y9924999D01*
X5687009Y9879990D01*
X5642965Y9879990D01*
X5642508Y9837978D01*
X5647486Y9833000D01*
X5762498Y9833000D01*
X5767476Y9837978D01*
X5767476Y9965994D01*
X5762498Y9970973D01*
G37*
G36*
X5432501Y9970973D02*
G01*
X5427472Y9965994D01*
X5427472Y9837978D01*
X5432501Y9833000D01*
X5547512Y9833000D01*
X5552490Y9837978D01*
X5552490Y9879990D01*
X5507990Y9879990D01*
X5507990Y9924999D01*
X5551982Y9924999D01*
X5552490Y9965994D01*
X5547512Y9970973D01*
G37*
G36*
X5647486Y7671003D02*
G01*
X5642508Y7665974D01*
X5642000Y7624978D01*
X5687009Y7624978D01*
X5687009Y7579969D01*
X5642965Y7579969D01*
X5642508Y7538008D01*
X5647486Y7532979D01*
X5762498Y7532979D01*
X5767476Y7538008D01*
X5767476Y7665974D01*
X5762498Y7671003D01*
G37*
G36*
X5432501Y7671003D02*
G01*
X5427472Y7665974D01*
X5427472Y7538008D01*
X5432501Y7532979D01*
X5547512Y7532979D01*
X5552490Y7538008D01*
X5552490Y7579969D01*
X5507990Y7579969D01*
X5507990Y7624978D01*
X5551982Y7624978D01*
X5552490Y7665974D01*
X5547512Y7671003D01*
G37*
G36*
X7834122Y10599877D02*
G01*
X7829143Y10594848D01*
X7828635Y10553852D01*
X7873644Y10553852D01*
X7873644Y10508843D01*
X7829600Y10508843D01*
X7829143Y10466882D01*
X7834122Y10461853D01*
X7949133Y10461853D01*
X7954111Y10466882D01*
X7954111Y10594848D01*
X7949133Y10599877D01*
G37*
G36*
X7619136Y10599877D02*
G01*
X7614107Y10594848D01*
X7614107Y10466882D01*
X7619136Y10461853D01*
X7734147Y10461853D01*
X7739125Y10466882D01*
X7739125Y10508843D01*
X7694625Y10508843D01*
X7694625Y10553852D01*
X7738618Y10553852D01*
X7739125Y10594848D01*
X7734147Y10599877D01*
G37*
G36*
X11133988Y8767470D02*
G01*
X11128959Y8762492D01*
X11128959Y8647480D01*
X11133988Y8642502D01*
X11174984Y8641994D01*
X11174984Y8687003D01*
X11219992Y8687003D01*
X11219992Y8642959D01*
X11261953Y8642502D01*
X11266982Y8647480D01*
X11266982Y8762492D01*
X11261953Y8767470D01*
G37*
G36*
X11133988Y8552484D02*
G01*
X11128959Y8547506D01*
X11128959Y8432495D01*
X11133988Y8427466D01*
X11261953Y8427466D01*
X11266982Y8432495D01*
X11266982Y8547506D01*
X11261953Y8552484D01*
X11219992Y8552484D01*
X11219992Y8507984D01*
X11174984Y8507984D01*
X11174984Y8551976D01*
G37*
G36*
X8547506Y11170970D02*
G01*
X8542477Y11165992D01*
X8541969Y11124996D01*
X8586978Y11124996D01*
X8586978Y11079988D01*
X8542985Y11079988D01*
X8542477Y11037976D01*
X8547506Y11032998D01*
X8662466Y11032998D01*
X8667496Y11037976D01*
X8667496Y11165992D01*
X8662466Y11170970D01*
G37*
G36*
X8332470Y11170970D02*
G01*
X8327491Y11165992D01*
X8327491Y11037976D01*
X8332470Y11032998D01*
X8447481Y11032998D01*
X8452459Y11037976D01*
X8452459Y11079988D01*
X8408009Y11079988D01*
X8408009Y11124996D01*
X8452002Y11124996D01*
X8452459Y11165992D01*
X8447481Y11170970D01*
G37*
G36*
X9347504Y7370978D02*
G01*
X9342475Y7366000D01*
X9341967Y7325004D01*
X9386976Y7325004D01*
X9386976Y7279995D01*
X9342983Y7279995D01*
X9342475Y7237984D01*
X9347504Y7233005D01*
X9462465Y7233005D01*
X9467494Y7237984D01*
X9467494Y7366000D01*
X9462465Y7370978D01*
G37*
G36*
X9132468Y7370978D02*
G01*
X9127490Y7366000D01*
X9127490Y7237984D01*
X9132468Y7233005D01*
X9247479Y7233005D01*
X9252458Y7237984D01*
X9252458Y7279995D01*
X9208008Y7279995D01*
X9208008Y7325004D01*
X9252000Y7325004D01*
X9252458Y7366000D01*
X9247479Y7370978D01*
G37*
G36*
X12247473Y10970971D02*
G01*
X12242495Y10965992D01*
X12241987Y10924997D01*
X12286996Y10924997D01*
X12286996Y10879988D01*
X12242952Y10879988D01*
X12242495Y10837976D01*
X12247473Y10832998D01*
X12362484Y10832998D01*
X12367463Y10837976D01*
X12367463Y10965992D01*
X12362484Y10970971D01*
G37*
G36*
X12032488Y10970971D02*
G01*
X12027458Y10965992D01*
X12027458Y10837976D01*
X12032488Y10832998D01*
X12147499Y10832998D01*
X12152477Y10837976D01*
X12152477Y10879988D01*
X12107976Y10879988D01*
X12107976Y10924997D01*
X12151969Y10924997D01*
X12152477Y10965992D01*
X12147499Y10970971D01*
G37*
G36*
X13147497Y7671003D02*
G01*
X13142468Y7665974D01*
X13141960Y7624978D01*
X13186968Y7624978D01*
X13186968Y7579969D01*
X13142976Y7579969D01*
X13142468Y7538008D01*
X13147497Y7532979D01*
X13262457Y7532979D01*
X13267486Y7538008D01*
X13267486Y7665974D01*
X13262457Y7671003D01*
G37*
G36*
X12932460Y7671003D02*
G01*
X12927482Y7665974D01*
X12927482Y7538008D01*
X12932460Y7532979D01*
X13047471Y7532979D01*
X13052501Y7538008D01*
X13052450Y7579969D01*
X13008000Y7579969D01*
X13008000Y7624978D01*
X13051993Y7624978D01*
X13052501Y7665974D01*
X13047471Y7671003D01*
G37*
G36*
X16647464Y11470995D02*
G01*
X16642486Y11465966D01*
X16641978Y11424970D01*
X16686987Y11424970D01*
X16686987Y11379962D01*
X16642943Y11379962D01*
X16642486Y11338001D01*
X16647464Y11332972D01*
X16762476Y11332972D01*
X16767454Y11338001D01*
X16767454Y11465966D01*
X16762476Y11470995D01*
G37*
G36*
X16432479Y11470995D02*
G01*
X16427450Y11465966D01*
X16427450Y11338001D01*
X16432479Y11332972D01*
X16547490Y11332972D01*
X16552468Y11338001D01*
X16552468Y11379962D01*
X16507968Y11379962D01*
X16507968Y11424970D01*
X16551960Y11424970D01*
X16552468Y11465966D01*
X16547490Y11470995D01*
G37*
G36*
X16647464Y7770977D02*
G01*
X16642486Y7765999D01*
X16641978Y7725003D01*
X16686987Y7725003D01*
X16686987Y7679994D01*
X16642943Y7679994D01*
X16642486Y7637983D01*
X16647464Y7633004D01*
X16762476Y7633004D01*
X16767454Y7637983D01*
X16767454Y7765999D01*
X16762476Y7770977D01*
G37*
G36*
X16432479Y7770977D02*
G01*
X16427450Y7765999D01*
X16427450Y7637983D01*
X16432479Y7633004D01*
X16547490Y7633004D01*
X16552468Y7637983D01*
X16552468Y7679994D01*
X16507968Y7679994D01*
X16507968Y7725003D01*
X16551960Y7725003D01*
X16552468Y7765999D01*
X16547490Y7770977D01*
G37*
G36*
X8447481Y6671005D02*
G01*
X8442502Y6665975D01*
X8441994Y6624980D01*
X8487003Y6624980D01*
X8487003Y6579971D01*
X8442960Y6579971D01*
X8442502Y6538010D01*
X8447481Y6532981D01*
X8562492Y6532981D01*
X8567470Y6538010D01*
X8567470Y6665975D01*
X8562492Y6671005D01*
G37*
G36*
X8232495Y6671005D02*
G01*
X8227466Y6665975D01*
X8227466Y6538010D01*
X8232495Y6532981D01*
X8347506Y6532981D01*
X8352485Y6538010D01*
X8352485Y6579971D01*
X8307984Y6579971D01*
X8307984Y6624980D01*
X8351977Y6624980D01*
X8352485Y6665975D01*
X8347506Y6671005D01*
G37*
G36*
X3249980Y9668967D02*
G01*
X3245002Y9663988D01*
X3244494Y9622993D01*
X3289503Y9622993D01*
X3289503Y9577984D01*
X3245510Y9577984D01*
X3245002Y9535972D01*
X3249980Y9530994D01*
X3364992Y9530994D01*
X3369970Y9535972D01*
X3369970Y9663988D01*
X3364992Y9668967D01*
G37*
G36*
X3034995Y9668967D02*
G01*
X3030016Y9663988D01*
X3030016Y9535972D01*
X3034995Y9530994D01*
X3150006Y9530994D01*
X3154984Y9535972D01*
X3154984Y9577984D01*
X3110484Y9577984D01*
X3110484Y9622993D01*
X3154476Y9622993D01*
X3154984Y9663988D01*
X3150006Y9668967D01*
G37*
G36*
X6150000Y9768992D02*
G01*
X6144971Y9763963D01*
X6144463Y9722967D01*
X6189472Y9722967D01*
X6189472Y9677958D01*
X6145479Y9677958D01*
X6144971Y9635998D01*
X6150000Y9630968D01*
X6265011Y9630968D01*
X6269990Y9635998D01*
X6269990Y9763963D01*
X6265011Y9768992D01*
G37*
G36*
X5935014Y9768992D02*
G01*
X5929985Y9763963D01*
X5929985Y9635998D01*
X5935014Y9630968D01*
X6049975Y9630968D01*
X6055004Y9635998D01*
X6055004Y9677958D01*
X6010503Y9677958D01*
X6010503Y9722967D01*
X6054496Y9722967D01*
X6055004Y9763963D01*
X6049975Y9768992D01*
G37*
G36*
X6249974Y8068970D02*
G01*
X6244996Y8063992D01*
X6244488Y8022996D01*
X6289497Y8022996D01*
X6289497Y7977987D01*
X6245504Y7977987D01*
X6244996Y7935975D01*
X6249974Y7930997D01*
X6364986Y7930997D01*
X6370015Y7935975D01*
X6370015Y8063992D01*
X6364986Y8068970D01*
G37*
G36*
X6034989Y8068970D02*
G01*
X6030010Y8063992D01*
X6030010Y7935975D01*
X6034989Y7930997D01*
X6150000Y7930997D01*
X6154978Y7935975D01*
X6154978Y7977987D01*
X6110478Y7977987D01*
X6110478Y8022996D01*
X6154470Y8022996D01*
X6154978Y8063992D01*
X6150000Y8068970D01*
G37*
G36*
X8188756Y10475163D02*
G01*
X8183778Y10470134D01*
X8183778Y10355173D01*
X8188756Y10350144D01*
X8229752Y10349636D01*
X8229752Y10394645D01*
X8274761Y10394645D01*
X8274761Y10350652D01*
X8316772Y10350144D01*
X8321751Y10355173D01*
X8321751Y10470134D01*
X8316772Y10475163D01*
G37*
G36*
X8188756Y10260177D02*
G01*
X8183778Y10255148D01*
X8183778Y10140137D01*
X8188756Y10135158D01*
X8316772Y10135158D01*
X8321751Y10140137D01*
X8321751Y10255148D01*
X8316772Y10260177D01*
X8274761Y10260126D01*
X8274761Y10215626D01*
X8229752Y10215626D01*
X8229752Y10259669D01*
G37*
G36*
X10749991Y8968994D02*
G01*
X10744962Y8963964D01*
X10744454Y8922969D01*
X10789462Y8922969D01*
X10789462Y8877960D01*
X10745470Y8877960D01*
X10744962Y8835999D01*
X10749991Y8830970D01*
X10865002Y8830970D01*
X10869980Y8835999D01*
X10869980Y8963964D01*
X10865002Y8968994D01*
G37*
G36*
X10534954Y8968994D02*
G01*
X10529976Y8963964D01*
X10529976Y8835999D01*
X10534954Y8830970D01*
X10649966Y8830970D01*
X10654995Y8835999D01*
X10654995Y8877960D01*
X10610494Y8877960D01*
X10610494Y8922969D01*
X10654487Y8922969D01*
X10654995Y8963964D01*
X10649966Y8968994D01*
G37*
G36*
X8935974Y11169954D02*
G01*
X8930995Y11164976D01*
X8930995Y11049965D01*
X8935974Y11044986D01*
X8976969Y11044478D01*
X8976969Y11089487D01*
X9021978Y11089487D01*
X9021978Y11045494D01*
X9063990Y11044986D01*
X9068968Y11049965D01*
X9068968Y11164976D01*
X9063990Y11169954D01*
G37*
G36*
X8935974Y10954969D02*
G01*
X8930995Y10949990D01*
X8930995Y10834979D01*
X8935974Y10830001D01*
X9063990Y10830001D01*
X9068968Y10834979D01*
X9068968Y10949990D01*
X9063990Y10954969D01*
X9021978Y10954969D01*
X9021978Y10910468D01*
X8976969Y10910468D01*
X8976969Y10954461D01*
G37*
G36*
X9822992Y7555484D02*
G01*
X9822992Y7510475D01*
X9777984Y7510475D01*
X9777984Y7554468D01*
X9735972Y7554975D01*
X9730994Y7549997D01*
X9730994Y7434986D01*
X9735972Y7429957D01*
X9863988Y7429957D01*
X9868966Y7434986D01*
X9868966Y7549997D01*
X9863988Y7554975D01*
G37*
G36*
X9735972Y7769961D02*
G01*
X9730994Y7764983D01*
X9730994Y7649972D01*
X9735972Y7644993D01*
X9777984Y7644993D01*
X9777984Y7689494D01*
X9822992Y7689494D01*
X9822992Y7645501D01*
X9863988Y7644993D01*
X9868966Y7649972D01*
X9868966Y7764983D01*
X9863988Y7769961D01*
G37*
G36*
X12635992Y10869980D02*
G01*
X12630962Y10865002D01*
X12630962Y10749991D01*
X12635992Y10744962D01*
X12676987Y10744454D01*
X12676987Y10789462D01*
X12721996Y10789462D01*
X12721996Y10745470D01*
X12763957Y10744962D01*
X12768986Y10749991D01*
X12768986Y10865002D01*
X12763957Y10869980D01*
G37*
G36*
X12635992Y10654995D02*
G01*
X12630962Y10649966D01*
X12630962Y10534954D01*
X12635992Y10529976D01*
X12763957Y10529976D01*
X12768986Y10534954D01*
X12768986Y10649966D01*
X12763957Y10654995D01*
X12721996Y10654995D01*
X12721996Y10610494D01*
X12676987Y10610494D01*
X12676987Y10654487D01*
G37*
G36*
X13622985Y7755483D02*
G01*
X13622985Y7710474D01*
X13577976Y7710474D01*
X13577976Y7754467D01*
X13535964Y7754975D01*
X13530986Y7749997D01*
X13530986Y7634986D01*
X13535964Y7630007D01*
X13663980Y7630007D01*
X13668959Y7634986D01*
X13668959Y7749997D01*
X13663980Y7754975D01*
G37*
G36*
X13535964Y7969961D02*
G01*
X13530986Y7964982D01*
X13530986Y7849971D01*
X13535964Y7844993D01*
X13577976Y7844993D01*
X13577976Y7889494D01*
X13622985Y7889494D01*
X13622985Y7845501D01*
X13663980Y7844993D01*
X13668959Y7849971D01*
X13668959Y7964982D01*
X13663980Y7969961D01*
G37*
G36*
X17035983Y11469979D02*
G01*
X17030954Y11465001D01*
X17030954Y11349990D01*
X17035983Y11344960D01*
X17076978Y11344452D01*
X17076978Y11389461D01*
X17121987Y11389461D01*
X17121987Y11345468D01*
X17163948Y11344960D01*
X17168977Y11349990D01*
X17168977Y11465001D01*
X17163948Y11469979D01*
G37*
G36*
X17035983Y11254994D02*
G01*
X17030954Y11249964D01*
X17030954Y11135004D01*
X17035983Y11129975D01*
X17163948Y11129975D01*
X17168977Y11135004D01*
X17168977Y11249964D01*
X17163948Y11254994D01*
X17121987Y11254994D01*
X17121987Y11210493D01*
X17076978Y11210493D01*
X17076978Y11254486D01*
G37*
G36*
X17122952Y7855508D02*
G01*
X17122952Y7810500D01*
X17077944Y7810500D01*
X17077944Y7854492D01*
X17035983Y7855000D01*
X17030954Y7849971D01*
X17030954Y7734960D01*
X17035983Y7729981D01*
X17163948Y7729981D01*
X17168977Y7734960D01*
X17168977Y7849971D01*
X17163948Y7855000D01*
G37*
G36*
X17035983Y8069986D02*
G01*
X17030954Y8064957D01*
X17030954Y7949996D01*
X17035983Y7944967D01*
X17077944Y7944967D01*
X17077944Y7989468D01*
X17122952Y7989468D01*
X17122952Y7945475D01*
X17163948Y7944967D01*
X17168977Y7949996D01*
X17168977Y8064957D01*
X17163948Y8069986D01*
G37*
G36*
X8735974Y6570014D02*
G01*
X8730996Y6564985D01*
X8730996Y6449974D01*
X8735974Y6444996D01*
X8776970Y6444488D01*
X8776970Y6489496D01*
X8821978Y6489496D01*
X8821978Y6445504D01*
X8863990Y6444996D01*
X8868968Y6449974D01*
X8868968Y6564985D01*
X8863990Y6570014D01*
G37*
G36*
X8735974Y6354978D02*
G01*
X8730996Y6350000D01*
X8730996Y6234988D01*
X8735974Y6230010D01*
X8863990Y6230010D01*
X8868968Y6234988D01*
X8868968Y6350000D01*
X8863990Y6354978D01*
X8821978Y6354978D01*
X8821978Y6310477D01*
X8776970Y6310477D01*
X8776970Y6354470D01*
G37*
G36*
X17622977Y11855500D02*
G01*
X17622977Y11810492D01*
X17577968Y11810492D01*
X17577968Y11854484D01*
X17535956Y11854992D01*
X17530978Y11849963D01*
X17530978Y11734952D01*
X17535956Y11729974D01*
X17663972Y11729974D01*
X17668951Y11734952D01*
X17668951Y11849963D01*
X17663972Y11854992D01*
G37*
G36*
X17535956Y12069978D02*
G01*
X17530978Y12064949D01*
X17530978Y11949988D01*
X17535956Y11944959D01*
X17577968Y11944959D01*
X17577968Y11989460D01*
X17622977Y11989460D01*
X17622977Y11945467D01*
X17663972Y11944959D01*
X17668951Y11949988D01*
X17668951Y12064949D01*
X17663972Y12069978D01*
G37*
G36*
X2935986Y10170007D02*
G01*
X2931007Y10164978D01*
X2931007Y10049967D01*
X2935986Y10044988D01*
X2976981Y10044480D01*
X2976981Y10089489D01*
X3021990Y10089489D01*
X3021990Y10045496D01*
X3064002Y10044988D01*
X3068980Y10049967D01*
X3068980Y10164978D01*
X3064002Y10170007D01*
G37*
G36*
X2935986Y9954971D02*
G01*
X2931007Y9949992D01*
X2931007Y9834981D01*
X2935986Y9830003D01*
X3064002Y9830003D01*
X3068980Y9834981D01*
X3068980Y9949992D01*
X3064002Y9954971D01*
X3021990Y9954971D01*
X3021990Y9910470D01*
X2976981Y9910470D01*
X2976981Y9954463D01*
G37*
G36*
X5434990Y9568992D02*
G01*
X5430012Y9563963D01*
X5430012Y9435998D01*
X5434990Y9430969D01*
X5550001Y9430969D01*
X5554980Y9435998D01*
X5555488Y9476994D01*
X5510479Y9476994D01*
X5510479Y9522002D01*
X5554472Y9522002D01*
X5554980Y9563963D01*
X5550001Y9568992D01*
G37*
G36*
X5649976Y9568992D02*
G01*
X5644997Y9563963D01*
X5644997Y9522002D01*
X5689498Y9522002D01*
X5689498Y9476994D01*
X5645505Y9476994D01*
X5644997Y9435998D01*
X5649976Y9430969D01*
X5764987Y9430969D01*
X5769965Y9435998D01*
X5769965Y9563963D01*
X5764987Y9568992D01*
G37*
G36*
X5434990Y8068970D02*
G01*
X5430012Y8063992D01*
X5430012Y7935975D01*
X5434990Y7930997D01*
X5550001Y7930997D01*
X5554980Y7935975D01*
X5555488Y7976971D01*
X5510479Y7976971D01*
X5510479Y8021980D01*
X5554472Y8021980D01*
X5554980Y8063992D01*
X5550001Y8068970D01*
G37*
G36*
X5649976Y8068970D02*
G01*
X5644997Y8063992D01*
X5644997Y8021980D01*
X5689498Y8021980D01*
X5689498Y7976971D01*
X5645505Y7976971D01*
X5644997Y7935975D01*
X5649976Y7930997D01*
X5764987Y7930997D01*
X5769965Y7935975D01*
X5769965Y8063992D01*
X5764987Y8068970D01*
G37*
G36*
X7608062Y10252049D02*
G01*
X7603083Y10247071D01*
X7603083Y10119055D01*
X7608062Y10114026D01*
X7723073Y10114026D01*
X7728051Y10119055D01*
X7728559Y10160050D01*
X7683550Y10160050D01*
X7683550Y10205059D01*
X7727594Y10205059D01*
X7728051Y10247071D01*
X7723073Y10252049D01*
G37*
G36*
X7823098Y10252049D02*
G01*
X7818069Y10247071D01*
X7818069Y10205059D01*
X7862570Y10205059D01*
X7862570Y10160050D01*
X7818577Y10160050D01*
X7818069Y10119055D01*
X7823098Y10114026D01*
X7938058Y10114026D01*
X7943088Y10119055D01*
X7943088Y10247071D01*
X7938058Y10252049D01*
G37*
G36*
X10749991Y8468969D02*
G01*
X10744962Y8463991D01*
X10744454Y8422995D01*
X10789462Y8422995D01*
X10789462Y8377986D01*
X10745470Y8377986D01*
X10744962Y8335975D01*
X10749991Y8330996D01*
X10865002Y8330996D01*
X10869980Y8335975D01*
X10869980Y8463991D01*
X10865002Y8468969D01*
G37*
G36*
X10534954Y8468969D02*
G01*
X10529976Y8463991D01*
X10529976Y8335975D01*
X10534954Y8330996D01*
X10649966Y8330996D01*
X10654995Y8335975D01*
X10654995Y8377986D01*
X10610494Y8377986D01*
X10610494Y8422995D01*
X10654487Y8422995D01*
X10654995Y8463991D01*
X10649966Y8468969D01*
G37*
G36*
X8334959Y10868964D02*
G01*
X8329980Y10863986D01*
X8329980Y10735970D01*
X8334959Y10730992D01*
X8449970Y10730992D01*
X8454999Y10735970D01*
X8455507Y10776966D01*
X8410498Y10776966D01*
X8410498Y10821974D01*
X8454491Y10821974D01*
X8454999Y10863986D01*
X8449970Y10868964D01*
G37*
G36*
X8549995Y10868964D02*
G01*
X8544966Y10863986D01*
X8544966Y10821974D01*
X8589467Y10821974D01*
X8589467Y10776966D01*
X8545474Y10776966D01*
X8544966Y10735970D01*
X8549995Y10730992D01*
X8664956Y10730992D01*
X8669985Y10735970D01*
X8669985Y10863986D01*
X8664956Y10868964D01*
G37*
G36*
X9134957Y7868970D02*
G01*
X9129979Y7863992D01*
X9129979Y7735976D01*
X9134957Y7730998D01*
X9249968Y7730998D01*
X9254998Y7735976D01*
X9255506Y7776972D01*
X9210497Y7776972D01*
X9210497Y7821980D01*
X9254490Y7821980D01*
X9254998Y7863992D01*
X9249968Y7868970D01*
G37*
G36*
X9349994Y7868970D02*
G01*
X9344964Y7863992D01*
X9344964Y7821980D01*
X9389465Y7821980D01*
X9389465Y7776972D01*
X9345472Y7776972D01*
X9344964Y7735976D01*
X9349994Y7730998D01*
X9464954Y7730998D01*
X9469983Y7735976D01*
X9469983Y7863992D01*
X9464954Y7868970D01*
G37*
G36*
X12034977Y10668965D02*
G01*
X12029998Y10663986D01*
X12029998Y10535970D01*
X12034977Y10530992D01*
X12149988Y10530992D01*
X12154966Y10535970D01*
X12155474Y10576966D01*
X12110466Y10576966D01*
X12110466Y10621975D01*
X12154458Y10621975D01*
X12154966Y10663986D01*
X12149988Y10668965D01*
G37*
G36*
X12249962Y10668965D02*
G01*
X12244984Y10663986D01*
X12244984Y10621975D01*
X12289485Y10621975D01*
X12289485Y10576966D01*
X12245492Y10576966D01*
X12244984Y10535970D01*
X12249962Y10530992D01*
X12364974Y10530992D01*
X12369952Y10535970D01*
X12369952Y10663986D01*
X12364974Y10668965D01*
G37*
G36*
X12934950Y8068970D02*
G01*
X12929971Y8063992D01*
X12929971Y7935975D01*
X12934950Y7930997D01*
X13049961Y7930997D01*
X13054990Y7935975D01*
X13055498Y7976971D01*
X13010489Y7976971D01*
X13010489Y8021980D01*
X13054482Y8021980D01*
X13054990Y8063992D01*
X13049961Y8068970D01*
G37*
G36*
X13149986Y8068970D02*
G01*
X13144957Y8063992D01*
X13144957Y8021980D01*
X13189457Y8021980D01*
X13189457Y7976971D01*
X13145465Y7976971D01*
X13144957Y7935975D01*
X13149986Y7930997D01*
X13264997Y7930997D01*
X13269976Y7935975D01*
X13269976Y8063992D01*
X13264997Y8068970D01*
G37*
G36*
X16434968Y11168989D02*
G01*
X16429990Y11163960D01*
X16429990Y11035995D01*
X16434968Y11030966D01*
X16549979Y11030966D01*
X16554957Y11035995D01*
X16555466Y11076990D01*
X16510457Y11076990D01*
X16510457Y11121999D01*
X16554450Y11121999D01*
X16554957Y11163960D01*
X16549979Y11168989D01*
G37*
G36*
X16649954Y11168989D02*
G01*
X16644975Y11163960D01*
X16644975Y11121999D01*
X16689476Y11121999D01*
X16689476Y11076990D01*
X16645483Y11076990D01*
X16644975Y11035995D01*
X16649954Y11030966D01*
X16764965Y11030966D01*
X16769943Y11035995D01*
X16769943Y11163960D01*
X16764965Y11168989D01*
G37*
G36*
X16434968Y8168995D02*
G01*
X16429990Y8163966D01*
X16429990Y8036001D01*
X16434968Y8030972D01*
X16549979Y8030972D01*
X16554957Y8036001D01*
X16555466Y8076996D01*
X16510457Y8076996D01*
X16510457Y8122005D01*
X16554450Y8122005D01*
X16554957Y8163966D01*
X16549979Y8168995D01*
G37*
G36*
X16649954Y8168995D02*
G01*
X16644975Y8163966D01*
X16644975Y8122005D01*
X16689476Y8122005D01*
X16689476Y8076996D01*
X16645483Y8076996D01*
X16644975Y8036001D01*
X16649954Y8030972D01*
X16764965Y8030972D01*
X16769943Y8036001D01*
X16769943Y8163966D01*
X16764965Y8168995D01*
G37*
G36*
X8234984Y6368999D02*
G01*
X8230006Y6363970D01*
X8230006Y6236004D01*
X8234984Y6230975D01*
X8349996Y6230975D01*
X8354974Y6236004D01*
X8355482Y6277000D01*
X8310473Y6277000D01*
X8310473Y6322009D01*
X8354466Y6322009D01*
X8354974Y6363970D01*
X8349996Y6368999D01*
G37*
G36*
X8449970Y6368999D02*
G01*
X8444992Y6363970D01*
X8444992Y6322009D01*
X8489492Y6322009D01*
X8489492Y6277000D01*
X8445500Y6277000D01*
X8444992Y6236004D01*
X8449970Y6230975D01*
X8564981Y6230975D01*
X8569960Y6236004D01*
X8569960Y6363970D01*
X8564981Y6368999D01*
G37*
M02*
